<svg width="9136" height="2610" xmlns="http://www.w3.org/2000/svg">
 <defs>
  <style type="text/css">
   <![CDATA[
    .str0 {stroke:#2B2A29;stroke-width:7.62;stroke-linecap:round;stroke-linejoin:round;stroke-miterlimit:22.9256}
    .fil1 {fill:#2B2A29}
    .fil0 {fill:#E31E24}
   ]]>
  </style>
 </defs>
 <g>
  <title>background</title>
  <rect fill="none" id="canvas_background" height="2612" width="9138" y="-1" x="-1"/>
 </g>
 <g>
  <title>Layer 1</title>
  <g id="Слой_x0020_1">
   <metadata transform="translate(1,1) translate(140.00022888183594,100.00016021728516) translate(-1160.0018310546875,-7880.0126953125) translate(1,1) translate(-4900.0078125,-5760.00927734375) " id="CorelCorpID_0Corel-Layer"/>
   <g id="_2963467954656">
    <path id="svg_1" d="m1166.03059,136.92819l-350.42,1503.97c-3.42,17.06 4.26,34.53 23.01,52.44c18.76,17.9 37.53,26.85 56.29,26.85l-17.91,58.84l-711.07,0c-54.57,0 -81.86,-27.28 -81.86,-81.84c0,-6.83 1.71,-20.48 5.12,-40.93l350.41,-1503.98c3.43,-17.05 -3.4,-34.53 -20.45,-52.43c-17.06,-17.91 -34.96,-26.86 -53.71,-26.86l12.78,-58.84l711.07,0c28.98,0 49.89,7.25 62.67,21.75c12.8,14.48 19.19,35.38 19.19,62.67l-5.12,38.36zm547.36,1642.1l-542.24,0c-35.82,0 -63.96,-8.53 -84.41,-25.58c-20.46,-17.05 -30.7,-37.51 -30.7,-61.38c0,-20.46 4.27,-39.23 12.79,-56.27l583.17,-1434.92c6.83,-13.64 10.23,-29 10.23,-46.05c0,-20.45 -7.68,-39.21 -23.01,-56.26c-15.35,-17.06 -32.4,-25.58 -51.16,-25.58l12.78,-58.84l690.62,0c27.28,0 51.58,7.68 72.89,23.03c21.31,15.34 31.98,38.36 31.98,69.06l17.9,616.43l225.09,-539.71c6.81,-13.63 10.23,-29.83 10.23,-48.58c0,-40.94 -21.32,-61.39 -63.96,-61.39l15.35,-58.84l703.4,0c29,0 53.71,12.8 74.19,38.37c20.45,25.57 30.68,55.42 30.68,89.53l84.41,1498.85c0,23.89 11.93,43.06 35.81,57.56c23.88,14.49 48.6,21.73 74.18,21.73l-12.8,58.84l-700.84,0c-22.15,0 -43.48,-10.22 -63.94,-30.7c-20.45,-20.46 -30.7,-42.62 -30.7,-66.49l5.12,-680.37l-296.7,777.56l-606.2,0l-15.35,-772.45l-240.43,603.64c0,6.81 0,18.76 0,35.81c0,23.86 8.53,42.19 25.58,54.99c17.06,12.78 37.51,19.17 61.39,19.17l-15.35,58.84zm3435.13,-721.3l89.52,235.32c11.93,20.47 28.13,37.93 48.59,52.43c20.47,14.5 43.48,21.75 69.06,21.75l74.19,0l-61.39,291.58c-17.05,80.14 -78.44,120.22 -184.16,120.22l-342.76,0c-44.33,0 -82.69,-11.51 -115.09,-34.53c-32.41,-23.02 -52.86,-51.59 -61.39,-85.69l-148.35,-521.78l-110,498.77l-2.54,25.58c0,17.04 7.24,31.11 21.73,42.19c14.5,11.1 32.82,16.62 55,16.62l-12.8,58.84l-708.49,0c-29,0 -50.73,-8.1 -65.23,-24.31c-14.5,-16.19 -21.74,-37.92 -21.74,-65.21c0,-10.23 1.71,-23.87 5.11,-40.93l347.85,-1496.3c3.42,-18.76 -3.4,-36.66 -20.45,-53.71c-17.05,-17.06 -35.81,-25.58 -56.28,-25.58l15.35,-58.84l1184.27,0c266,0 399,123.63 399,370.89c0,34.11 -1.7,63.94 -5.1,89.52c-8.52,44.33 -14.51,78.44 -17.9,102.32c-34.11,153.45 -79.29,266 -135.58,337.63c-56.26,71.62 -136.4,119.35 -240.42,143.22zm-457.85,-647.11l-74.19,317.16l99.77,0c57.97,0 98.04,-48.59 120.2,-145.8c3.42,-18.76 6.83,-37.09 10.25,-54.99c3.4,-17.9 5.1,-32.83 5.1,-44.75c0,-47.76 -20.45,-71.62 -61.38,-71.62l-99.75,0zm2529.66,1368.41l-659.92,0c-44.33,0 -77.16,-7.25 -98.46,-21.75c-21.32,-14.48 -33.67,-39.63 -37.1,-75.44l-23,-260.9l-296.71,0l-104.87,209.74c-1.72,5.12 -2.57,9.38 -2.57,12.78c0,3.42 -0.85,10.24 -2.55,20.47c0,15.35 7.25,28.56 21.75,39.64c14.48,11.1 31.11,16.62 49.86,16.62l-12.78,58.84l-555.04,0c-71.62,0 -107.44,-28.13 -107.44,-84.41c0,-15.34 4.27,-31.54 12.8,-48.59l752,-1457.95c5.1,-10.22 7.66,-23.02 7.66,-38.36c0,-18.75 -8.1,-36.24 -24.29,-52.43c-16.2,-16.2 -33.68,-24.3 -52.43,-24.3l15.33,-58.84l762.22,0c39.23,0 72.47,10.66 99.76,31.98c27.28,21.31 40.92,51.58 40.92,90.8l117.67,1493.75c0,22.16 11.92,42.63 35.81,61.39c23.87,18.75 48.58,28.12 74.16,28.12l-12.78,58.84zm-838.96,-987.31l-125.32,286.49l145.8,0l-20.48,-286.49zm1179.14,-777.57l1094.74,0c172.23,0 297.56,44.33 376,133c69.92,80.16 104.87,197.81 104.87,352.99c0,59.69 -5.54,126.6 -16.63,200.78c-11.09,74.19 -26.85,152.2 -47.32,234.04c-80.13,339.34 -158.99,564.85 -236.58,676.54c-77.59,111.69 -190.56,167.53 -338.91,167.53l-1140.78,0c-29,0 -50.73,-8.1 -65.24,-24.31c-14.49,-16.19 -21.73,-37.92 -21.73,-65.21c0,-10.23 1.71,-23.87 5.11,-40.93l347.86,-1496.3c3.42,-18.76 -3.4,-36.66 -20.45,-53.71c-17.06,-17.06 -35.81,-25.58 -56.28,-25.58l15.34,-58.84zm506.46,1342.84l86.95,0c35.82,0 63.11,-10.23 81.86,-30.69c18.75,-20.46 34.11,-55.4 46.04,-104.86l148.35,-636.89c6.82,-29 10.23,-56.28 10.23,-81.86c0,-52.86 -30.69,-79.29 -92.07,-79.29l-63.96,0l-217.4,933.59z" class="fil0"/>
    <path id="svg_2" d="m8696.19059,2042.90819l-60.88,379.33c-1.13,8.53 -4.31,15.15 -9.45,19.97c-5.17,4.82 -11.98,7.2 -20.57,7.2c-7.43,0 -13.17,-2.66 -17.17,-8.05c-4.03,-5.38 -5.42,-11.74 -4.3,-19.12l60.95,-379.33c1.1,-8.49 4.27,-15.14 9.41,-19.93c5.14,-4.82 12.02,-7.2 20.59,-7.2c7.41,0 13.12,2.68 17.15,8.06c3.99,5.34 5.42,11.73 4.27,19.07z" class="fil1 str0"/>
    <path id="svg_3" d="m8317.53059,2038.63819c0,5.09 -2.6,10.19 -7.74,15.3c-5.14,5.07 -12.02,7.63 -20.59,7.63l-129.54,0l-57.46,360.67c-2.85,18.11 -12.83,27.17 -30.04,27.17c-17.14,0 -24.28,-9.06 -21.43,-27.17l57.46,-360.67l-129.5,0c-13.13,0 -19.72,-7.63 -19.72,-22.93c0,-9.6 3.28,-15.84 9.87,-18.66c6.57,-2.79 12.45,-4.2 17.59,-4.2l310.51,0c13.71,0 20.59,7.59 20.59,22.86z" class="fil1 str0"/>
    <path id="svg_4" d="m7928.04059,2042.90819l-60.88,379.33c-1.12,8.53 -4.28,15.15 -9.46,19.97c-5.14,4.82 -12.01,7.2 -20.57,7.2c-7.39,0 -13.13,-2.66 -17.17,-8.05c-3.99,-5.38 -5.41,-11.74 -4.28,-19.12l35.17,-219.78l-247.03,0l-35.16,219.78c-1.14,8.53 -4.28,15.15 -9.42,19.97c-5.18,4.82 -12.03,7.2 -20.57,7.2c-7.47,0 -13.2,-2.66 -17.21,-8.05c-3.99,-5.38 -5.41,-11.74 -4.26,-19.12l60.87,-379.33c1.18,-8.49 4.28,-15.14 9.46,-19.93c5.13,-4.82 12.02,-7.2 20.57,-7.2c7.45,0 13.17,2.68 17.16,8.06c4,5.34 5.46,11.73 4.29,19.07l-17.99,113.72l247.03,0l17.98,-113.72c1.14,-8.49 4.32,-15.14 9.48,-19.93c5.14,-4.82 11.99,-7.2 20.58,-7.2c7.42,0 13.13,2.68 17.12,8.06c4.04,5.34 5.43,11.73 4.29,19.07z" class="fil1 str0"/>
    <path id="svg_5" d="m7431.40059,2184.65819c0,-38.53 -10.12,-68.9 -30.45,-91.27c-20.34,-22.3 -48.18,-33.53 -83.63,-33.53c-38.32,0 -72.49,11.45 -102.49,34.38c-30.06,22.9 -51.93,53.03 -65.62,90.42l282.19,0zm54.9,-17.01c0,18.15 -3.18,33.24 -9.44,45.43c-6.29,12.14 -16.02,18.23 -29.15,18.23l-311.38,0c-2.85,12.44 -4.31,23.75 -4.31,33.95c0,46.99 13.73,82.05 41.2,105.23c27.45,23.22 69.48,34.81 126.08,34.81c22.28,0 42.59,-1.14 60.91,-3.43l30.85,-3.38c5.19,-0.57 10.75,-1.15 16.74,-1.71c6.03,-0.58 9.58,-0.87 10.73,-0.87c7.42,0 13.3,1.61 17.58,4.71c4.29,3.11 6.42,8.93 6.42,17.38c0,9.63 -3.99,16.43 -12.01,20.4c-8,3.92 -16.55,5.92 -25.72,5.92l-55.74,5.09c-20.59,2.3 -43.74,3.39 -69.46,3.39c-64.65,0 -114.55,-15.41 -149.73,-46.22c-35.13,-30.85 -52.7,-75.69 -52.7,-134.54c0,-71.25 23.42,-132.35 70.28,-183.3c46.92,-50.89 105.55,-76.39 175.86,-76.39c48.63,0 86.91,13.01 114.95,39.06c32.02,29.95 48.04,68.72 48.04,116.24zm-446.94,-124.74l-60.88,379.33c-1.12,8.53 -4.29,15.15 -9.43,19.97c-5.16,4.82 -12.05,7.2 -20.62,7.2c-7.38,0 -13.12,-2.66 -17.14,-8.05c-4.01,-5.38 -5.43,-11.74 -4.28,-19.12l35.15,-219.78l-247.03,0l-35.16,219.78c-1.15,8.53 -4.29,15.15 -9.42,19.97c-5.16,4.82 -12.01,7.2 -20.57,7.2c-7.46,0 -13.2,-2.66 -17.19,-8.05c-4,-5.38 -5.43,-11.74 -4.28,-19.12l60.88,-379.33c1.17,-8.49 4.27,-15.14 9.45,-19.93c5.14,-4.82 12.02,-7.2 20.57,-7.2c7.47,0 13.17,2.68 17.17,8.06c3.99,5.34 5.45,11.73 4.28,19.07l-17.99,113.72l247.03,0l17.98,-113.72c1.19,-8.49 4.33,-15.14 9.49,-19.93c5.13,-4.82 11.98,-7.2 20.59,-7.2c7.4,0 13.12,2.68 17.12,8.06c4.02,5.34 5.41,11.73 4.28,19.07zm-503.49,160.41c0,-36.82 -7.45,-67.35 -22.33,-91.67c-21.15,-34.49 -55.13,-51.79 -102.02,-51.79c-53.22,0 -96.41,22.94 -129.55,68.77c-28.6,39.58 -42.91,85.41 -42.91,137.49c0,39.6 9.17,71.54 27.46,95.88c21.76,28.85 54.05,43.3 96.94,43.3c53.19,0 96.07,-21.51 128.66,-64.52c29.12,-38.45 43.75,-84.29 43.75,-137.46zm54.9,-4.26c0,67.35 -19.16,124.78 -57.5,172.27c-43.44,54.33 -102.93,81.47 -178.36,81.47c-64.66,0 -111.25,-21.76 -139.86,-65.33c-20.57,-31.14 -30.85,-69.88 -30.85,-116.28c0,-71.26 23.02,-132.26 69.06,-182.87c46.01,-50.64 101.32,-75.97 165.95,-75.97c52.05,0 93.66,16.56 124.8,49.65c31.17,33.09 46.76,78.79 46.76,137.06zm-444.33,-156.15l-60.89,379.33c-1.14,8.53 -4.28,15.15 -9.42,19.97c-5.18,4.82 -11.44,7.2 -18.91,7.2c-7.99,0 -14.11,-2.38 -18.43,-7.2c-4.27,-4.82 -5.84,-11.44 -4.7,-19.97l57.48,-360.67l-238.47,0l-57.48,360.67c-1.15,8.53 -4.29,15.15 -9.42,19.97c-5.14,4.82 -11.46,7.2 -18.87,7.2c-8.03,0 -14.16,-2.38 -18.44,-7.2c-4.33,-4.82 -5.9,-11.44 -4.74,-19.97l60.91,-379.33c2.86,-18.11 12.88,-27.13 30,-27.13l289.93,0c17.17,0 24.33,9.02 21.45,27.13zm-447.74,138.33c0,106.96 -5.7,181.62 -17.16,224.06c-7.99,29.41 -19.14,44.11 -33.45,44.11c-14.3,0 -21.43,-8.19 -21.43,-24.61c0,-6.23 0.86,-13.73 2.56,-22.46c1.72,-8.81 2.85,-15.73 3.43,-20.84c6.28,-34.48 11.31,-77.22 15.01,-128.15c3.74,-50.89 5.61,-101.83 5.61,-152.77c-17.77,29.44 -38.35,60.29 -61.79,92.53c-28.61,39.02 -54.63,69.87 -78.03,92.53c-5.74,5.67 -11.35,10.16 -16.76,13.55c-5.47,3.42 -11.6,5.09 -18.42,5.09c-6.3,0 -11.15,-1.28 -14.62,-3.77c-3.42,-2.58 -7.7,-7.53 -12.84,-14.87c-11.44,-16.99 -25.33,-46.24 -41.61,-87.86c-16.27,-41.58 -27.62,-73.98 -33.89,-97.2c-22.29,58.9 -40.31,121.68 -54.04,188.45c-8.03,39.61 -16.02,79.21 -24.01,118.79c-7.44,27.75 -19.18,41.59 -35.2,41.59c-4.56,0 -7.38,-0.29 -8.55,-0.85c-7.47,-3.95 -11.13,-12.7 -11.13,-26.32c0,-31.11 10.44,-85.14 31.3,-162.07c20.87,-76.93 45.59,-148.81 74.19,-215.58c4.58,-10.73 9.14,-18.8 13.71,-24.18c4.6,-5.39 10.59,-8.06 18.04,-8.06c7.99,0 13.69,1.99 17.12,5.92c1.75,1.71 3.75,6.53 6.04,14.47c14.26,49.2 25.71,86 34.26,110.32c13.21,37.35 29.5,73.81 48.95,109.48c34.84,-38.5 67.15,-79.8 96.9,-123.91c13.73,-20.95 33.74,-53.46 60.06,-97.6c3.43,-6.81 6.86,-11.61 10.32,-14.39c3.38,-2.86 8.84,-4.29 16.26,-4.29c6.85,0 12.01,2.29 15.48,6.77c3.39,4.54 5.66,13.06 6.8,25.47c4.58,45.27 6.89,90.82 6.89,136.65zm-527.52,22.08c0,-36.82 -7.46,-67.35 -22.33,-91.67c-21.15,-34.49 -55.17,-51.79 -102.03,-51.79c-53.22,0 -96.41,22.94 -129.55,68.77c-28.6,39.58 -42.92,85.41 -42.92,137.49c0,39.6 9.18,71.54 27.47,95.88c21.75,28.85 54.05,43.3 96.92,43.3c53.21,0 96.04,-21.51 128.68,-64.52c29.15,-38.45 43.76,-84.29 43.76,-137.46zm54.85,-4.26c0,67.35 -19.11,124.78 -57.45,172.27c-43.44,54.33 -102.94,81.47 -178.41,81.47c-64.62,0 -111.24,-21.76 -139.82,-65.33c-20.57,-31.14 -30.85,-69.88 -30.85,-116.28c0,-71.26 23,-132.26 69.01,-182.87c46.06,-50.64 101.37,-75.97 165.97,-75.97c52.03,0 93.66,16.56 124.84,49.65c31.16,33.09 46.71,78.79 46.71,137.06zm-439.17,-133.25c-14.25,26.05 -32.6,49.52 -54.85,70.45c-22.33,20.93 -46.9,38.2 -73.8,51.76c33.72,19.79 59.64,45.54 77.61,77.24c18.06,31.68 27.05,69.55 27.05,113.71c0,27.72 -3.01,46.41 -8.99,56.04c-6.04,9.6 -13.87,14.4 -23.61,14.4c-10.27,0 -16.87,-3.67 -19.73,-11.01c-2.88,-7.36 -4.27,-14.74 -4.27,-22.08l2.55,-39.91c0,-28.83 -7.15,-56.85 -21.47,-84c-18.82,-36.21 -47.18,-63.38 -84.89,-81.46c-16,5.09 -34.17,8.77 -54.45,11.01c-20.3,2.29 -42.2,3.44 -65.63,3.44l-31.74,196.84c-1.73,10.19 -5.14,17.26 -10.32,21.23c-5.14,3.94 -11.73,5.94 -19.68,5.94c-7.46,0 -13.21,-2.66 -17.2,-8.05c-3.99,-5.38 -5.41,-11.74 -4.27,-19.12l60.87,-379.33c1.19,-8.49 4.29,-15.14 9.46,-19.93c5.14,-4.82 12.01,-7.2 20.58,-7.2c7.45,0 13.17,2.68 17.16,8.06c4,5.34 5.46,11.73 4.27,19.07l-22.26,136.65c70.88,0 132.08,-19.51 183.55,-58.56c30.86,-23.76 55.75,-52.09 74.61,-84.85c4.61,-7.96 8.6,-13.35 11.99,-16.17c3.47,-2.79 8.93,-4.2 16.31,-4.2c13.19,0 19.71,6.73 19.71,20.37c0,9.02 -2.82,18.93 -8.56,29.66z" class="fil1 str0"/>
    <path id="svg_6" d="m3976.38059,2042.90819l-60.88,379.33c-1.15,8.53 -4.32,15.15 -9.5,19.97c-5.13,4.82 -11.92,7.2 -20.56,7.2c-7.38,0 -13.12,-2.66 -17.12,-8.05c-4.04,-5.38 -5.43,-11.74 -4.33,-19.12l60.93,-379.33c1.1,-8.49 4.26,-15.14 9.44,-19.93c5.15,-4.82 12.03,-7.2 20.58,-7.2c7.43,0 13.13,2.68 17.16,8.06c3.99,5.34 5.38,11.73 4.28,19.07z" class="fil1 str0"/>
    <path id="svg_7" d="m3807.44059,2042.90819l-60.89,379.33c-1.1,8.53 -4.27,15.15 -9.41,19.97c-5.18,4.82 -12.02,7.2 -20.59,7.2c-7.41,0 -13.15,-2.66 -17.19,-8.05c-3.99,-5.38 -5.42,-11.74 -4.28,-19.12l35.18,-219.78l-247.04,0l-35.17,219.78c-1.13,8.53 -4.27,15.15 -9.41,19.97c-5.13,4.82 -12.02,7.2 -20.59,7.2c-7.45,0 -13.19,-2.66 -17.19,-8.05c-3.99,-5.38 -5.41,-11.74 -4.28,-19.12l60.93,-379.33c1.14,-8.49 4.28,-15.14 9.42,-19.93c5.12,-4.82 12.01,-7.2 20.58,-7.2c7.44,0 13.19,2.68 17.18,8.06c3.97,5.34 5.43,11.73 4.29,19.07l-18.02,113.72l247.04,0l17.97,-113.72c1.17,-8.49 4.35,-15.14 9.49,-19.93c5.14,-4.82 11.98,-7.2 20.57,-7.2c7.43,0 13.13,2.68 17.12,8.06c4.04,5.34 5.47,11.73 4.29,19.07z" class="fil1 str0"/>
    <path id="svg_8" d="m3365.70059,2042.90819l-60.93,379.33c-1.1,8.53 -4.27,15.15 -9.4,19.97c-5.14,4.82 -12.02,7.2 -20.59,7.2c-7.41,0 -13.13,-2.66 -17.19,-8.05c-4,-5.38 -5.43,-11.74 -4.28,-19.12l35.17,-219.78l-247.04,0l-35.15,219.78c-1.15,8.53 -4.29,15.15 -9.42,19.97c-5.14,4.82 -12.03,7.2 -20.58,7.2c-7.47,0 -13.16,-2.66 -17.16,-8.05c-3.99,-5.38 -5.46,-11.74 -4.29,-19.12l60.9,-379.33c1.14,-8.49 4.28,-15.14 9.4,-19.93c5.14,-4.82 12.02,-7.2 20.59,-7.2c7.45,0 13.19,2.68 17.18,8.06c4,5.34 5.44,11.73 4.3,19.07l-18.03,113.72l247.04,0l18.02,-113.72c1.14,-8.49 4.31,-15.14 9.44,-19.93c5.14,-4.82 11.98,-7.2 20.58,-7.2c7.43,0 13.17,2.68 17.12,8.06c4.06,5.34 5.45,11.73 4.32,19.07z" class="fil1 str0"/>
    <path id="svg_9" d="m2862.19059,2203.31819c0,-36.82 -7.46,-67.35 -22.3,-91.67c-21.18,-34.49 -55.17,-51.79 -102.09,-51.79c-53.17,0 -96.36,22.94 -129.49,68.77c-28.65,39.58 -42.92,85.41 -42.92,137.49c0,39.6 9.13,71.54 27.46,95.88c21.73,28.85 54.01,43.3 96.92,43.3c53.17,0 96.04,-21.51 128.64,-64.52c29.19,-38.45 43.78,-84.29 43.78,-137.46zm54.89,-4.26c0,67.35 -19.15,124.78 -57.47,172.27c-43.44,54.33 -102.94,81.47 -178.41,81.47c-64.62,0 -111.23,-21.76 -139.81,-65.33c-20.58,-31.14 -30.88,-69.88 -30.88,-116.28c0,-71.26 22.99,-132.26 69.04,-182.87c46.01,-50.64 101.38,-75.97 165.97,-75.97c52.03,0 93.65,16.56 124.83,49.65c31.17,33.09 46.73,78.79 46.73,137.06zm-502.66,33.92c0,-56.56 -25.15,-100.4 -75.47,-131.54c-42.92,-26.56 -95.53,-39.87 -157.86,-39.87l-11.95,0l-54.93,342.01l117.48,0c72.08,0 123.27,-22.08 153.59,-66.19c19.43,-28.29 29.14,-63.11 29.14,-104.41zm54.07,-1.67c0,71.3 -22.23,125.47 -66.52,162.51c-44.29,37.06 -98.2,55.59 -161.69,55.59l-132.93,0l-21.43,133.27c-1.75,10.16 -5.18,17.25 -10.3,21.21c-5.14,3.92 -11.75,5.92 -19.74,5.92c-7.45,0 -13.15,-2.68 -17.14,-8.06c-4,-5.34 -5.47,-11.77 -4.29,-19.07l86.61,-539.77c2.84,-18.11 12.87,-27.13 30.03,-27.13l54.07,0c75.43,0 138.21,19.9 188.24,59.81c50.05,39.87 75.09,91.77 75.09,155.72zm-374.83,-192.67c0,5.09 -2.6,10.19 -7.74,15.3c-5.18,5.07 -12.03,7.63 -20.57,7.63l-129.55,0l-57.47,360.67c-2.85,18.11 -12.86,27.17 -30.02,27.17c-17.16,0 -24.3,-9.06 -21.45,-27.17l57.48,-360.67l-129.53,0c-13.14,0 -19.71,-7.63 -19.71,-22.93c0,-9.6 3.27,-15.84 9.87,-18.66c6.53,-2.79 12.43,-4.2 17.58,-4.2l310.53,0c13.69,0 20.58,7.59 20.58,22.86z" class="fil1 str0"/>
    <path id="svg_10" d="m1709.34059,2065.80819c-14.27,26.05 -32.6,49.52 -54.86,70.45c-22.31,20.93 -46.89,38.2 -73.78,51.76c33.69,19.79 59.59,45.54 77.6,77.24c18.06,31.68 27.04,69.55 27.04,113.71c0,27.72 -2.99,46.41 -8.98,56.04c-6.03,9.6 -13.89,14.4 -23.62,14.4c-10.28,0 -16.87,-3.67 -19.73,-11.01c-2.89,-7.36 -4.28,-14.74 -4.28,-22.08l2.58,-39.91c0,-28.83 -7.18,-56.85 -21.47,-84c-18.84,-36.21 -47.2,-63.38 -84.9,-81.46c-16.01,5.09 -34.17,8.77 -54.45,11.01c-20.3,2.29 -42.2,3.44 -65.64,3.44l-31.74,196.84c-1.74,10.19 -5.14,17.26 -10.31,21.23c-5.13,3.94 -11.73,5.94 -19.72,5.94c-7.42,0 -13.17,-2.66 -17.16,-8.05c-4,-5.38 -5.43,-11.74 -4.28,-19.12l60.88,-379.33c1.19,-8.49 4.29,-15.14 9.45,-19.93c5.14,-4.82 12.02,-7.2 20.59,-7.2c7.46,0 13.15,2.68 17.15,8.06c3.99,5.34 5.47,11.73 4.28,19.07l-22.26,136.65c70.88,0 132.08,-19.51 183.55,-58.56c30.85,-23.76 55.76,-52.09 74.62,-84.85c4.6,-7.96 8.59,-13.35 11.98,-16.17c3.46,-2.79 8.91,-4.2 16.31,-4.2c13.19,0 19.72,6.73 19.72,20.37c0,9.02 -2.83,18.93 -8.57,29.66z" class="fil1 str0"/>
    <path id="svg_11" d="m1235.83059,2184.65819c0,-38.53 -10.09,-68.9 -30.42,-91.27c-20.33,-22.3 -48.19,-33.53 -83.64,-33.53c-38.3,0 -72.47,11.45 -102.46,34.38c-30.07,22.9 -51.95,53.03 -65.63,90.42l282.15,0zm54.94,-17.01c0,18.15 -3.18,33.24 -9.46,45.43c-6.28,12.14 -16.02,18.23 -29.14,18.23l-311.41,0c-2.81,12.44 -4.29,23.75 -4.29,33.95c0,46.99 13.74,82.05 41.21,105.23c27.46,23.22 69.47,34.81 126.07,34.81c22.3,0 42.6,-1.14 60.93,-3.43l30.86,-3.38c5.16,-0.57 10.74,-1.15 16.73,-1.71c6.01,-0.58 9.58,-0.87 10.73,-0.87c7.42,0 13.3,1.61 17.59,4.71c4.28,3.11 6.41,8.93 6.41,17.38c0,9.63 -3.99,16.43 -12.03,20.4c-7.98,3.92 -16.53,5.92 -25.7,5.92l-55.76,5.09c-20.57,2.3 -43.73,3.39 -69.48,3.39c-64.62,0 -114.53,-15.41 -149.69,-46.22c-35.13,-30.85 -52.72,-75.69 -52.72,-134.54c0,-71.25 23.44,-132.35 70.31,-183.3c46.89,-50.89 105.54,-76.39 175.83,-76.39c48.66,0 86.93,13.01 114.95,39.06c32.05,29.95 48.06,68.72 48.06,116.24z" class="fil1 str0"/>
    <path id="svg_12" d="m843.86059,2051.40819l-58.29,370.83c-1.17,8.53 -4.28,15.15 -9.44,19.97c-5.14,4.82 -12.03,7.2 -20.58,7.2c-7.47,0 -13.17,-2.66 -17.16,-8.05c-4,-5.38 -5.47,-11.74 -4.28,-19.12l57.45,-360.67l-69.48,0c-18.29,0 -35.34,4.96 -51.07,14.83c-15.74,9.96 -34.14,31.86 -55.28,65.81c-23.48,37.91 -45.9,80.76 -67.35,128.55c-21.47,47.83 -37.01,89.81 -46.75,126.02l-6.85,25.46c-2.86,9.09 -5.18,15.01 -6.88,17.84c-4.58,6.24 -11.71,9.33 -21.45,9.33c-9.15,0 -15.3,-2 -18.4,-5.94c-3.16,-3.97 -4.73,-10.17 -4.73,-18.67c0,-2.85 0.27,-6.23 0.85,-10.16c0.56,-3.95 1.67,-9.06 3.41,-15.3c13.17,-52.62 35.47,-111.04 66.93,-175.23c31.45,-64.24 63.76,-115.28 96.89,-153.2c19.48,-22.64 38.22,-37.48 56.23,-44.54c18.01,-7.07 41.62,-10.59 70.76,-10.59l84.07,0c15.43,0 23.14,6.73 23.14,20.37c0,3.35 -0.57,8.44 -1.74,15.26z" class="fil1 str0"/>
    <path id="svg_13" d="m382.07059,2184.65819c0,-38.53 -10.1,-68.9 -30.42,-91.27c-20.32,-22.3 -48.19,-33.53 -83.64,-33.53c-38.3,0 -72.48,11.45 -102.48,34.38c-30.07,22.9 -51.92,53.03 -65.63,90.42l282.17,0zm54.93,-17.01c0,18.15 -3.17,33.24 -9.45,45.43c-6.28,12.14 -16.02,18.23 -29.15,18.23l-311.4,0c-2.83,12.44 -4.28,23.75 -4.28,33.95c0,46.99 13.73,82.05 41.19,105.23c27.46,23.22 69.48,34.81 126.08,34.81c22.3,0 42.59,-1.14 60.92,-3.43l30.85,-3.38c5.18,-0.57 10.74,-1.15 16.73,-1.71c6.04,-0.58 9.61,-0.87 10.75,-0.87c7.41,0 13.3,1.61 17.57,4.71c4.28,3.11 6.43,8.93 6.43,17.38c0,9.63 -3.99,16.43 -12.02,20.4c-7.99,3.92 -16.56,5.92 -25.71,5.92l-55.75,5.09c-20.58,2.3 -43.73,3.39 -69.48,3.39c-64.64,0 -114.54,-15.41 -149.7,-46.22c-35.13,-30.85 -52.72,-75.69 -52.72,-134.54c0,-71.25 23.43,-132.35 70.3,-183.3c46.91,-50.89 105.55,-76.39 175.84,-76.39c48.65,0 86.92,13.01 114.96,39.06c32.02,29.95 48.04,68.72 48.04,116.24z" class="fil1 str0"/>
    <path id="svg_14" d="m8650.40059,2103.76819l-256.99,285.57c-5.58,6.54 -54.05,57.37 -60.98,58.63c-6.96,1.24 28.24,-47.43 21.02,-52.09c-6.23,-4.04 -9.61,-9.41 -10.04,-16.09c-0.46,-6.71 1.8,-12.81 6.74,-18.41l257.04,-285.53c5.54,-6.53 44.49,-53.41 51.39,-54.65c6.93,-1.25 -2.18,53.22 -1.42,64.21c0.45,6.66 -1.81,12.8 -6.76,18.36z" class="fil1 str0"/>
    <path id="svg_15" d="m8411.51059,2042.90819l-60.88,379.33c-1.15,8.53 -4.32,15.15 -9.45,19.97c-5.19,4.82 -12,7.2 -20.59,7.2c-7.41,0 -13.16,-2.66 -17.15,-8.05c-4.03,-5.38 -5.43,-11.74 -4.32,-19.12l60.95,-379.33c1.12,-8.49 4.29,-15.14 9.42,-19.93c5.14,-4.82 12.03,-7.2 20.57,-7.2c7.44,0 13.13,2.68 17.17,8.06c4,5.34 5.41,11.73 4.28,19.07z" class="fil1 str0"/>
   </g>
  </g>
 </g>
</svg>