%TF.GenerationSoftware,KiCad,Pcbnew,8.0.1*%
%TF.CreationDate,2024-07-03T17:25:44+03:00*%
%TF.ProjectId,main,6d61696e-2e6b-4696-9361-645f70636258,rev?*%
%TF.SameCoordinates,Original*%
%TF.FileFunction,Soldermask,Bot*%
%TF.FilePolarity,Negative*%
%FSLAX46Y46*%
G04 Gerber Fmt 4.6, Leading zero omitted, Abs format (unit mm)*
G04 Created by KiCad (PCBNEW 8.0.1) date 2024-07-03 17:25:44*
%MOMM*%
%LPD*%
G01*
G04 APERTURE LIST*
G04 Aperture macros list*
%AMRoundRect*
0 Rectangle with rounded corners*
0 $1 Rounding radius*
0 $2 $3 $4 $5 $6 $7 $8 $9 X,Y pos of 4 corners*
0 Add a 4 corners polygon primitive as box body*
4,1,4,$2,$3,$4,$5,$6,$7,$8,$9,$2,$3,0*
0 Add four circle primitives for the rounded corners*
1,1,$1+$1,$2,$3*
1,1,$1+$1,$4,$5*
1,1,$1+$1,$6,$7*
1,1,$1+$1,$8,$9*
0 Add four rect primitives between the rounded corners*
20,1,$1+$1,$2,$3,$4,$5,0*
20,1,$1+$1,$4,$5,$6,$7,0*
20,1,$1+$1,$6,$7,$8,$9,0*
20,1,$1+$1,$8,$9,$2,$3,0*%
%AMHorizOval*
0 Thick line with rounded ends*
0 $1 width*
0 $2 $3 position (X,Y) of the first rounded end (center of the circle)*
0 $4 $5 position (X,Y) of the second rounded end (center of the circle)*
0 Add line between two ends*
20,1,$1,$2,$3,$4,$5,0*
0 Add two circle primitives to create the rounded ends*
1,1,$1,$2,$3*
1,1,$1,$4,$5*%
G04 Aperture macros list end*
%ADD10R,4.000000X2.000000*%
%ADD11O,4.000000X2.000000*%
%ADD12C,4.700000*%
%ADD13C,3.000000*%
%ADD14R,1.700000X1.700000*%
%ADD15C,1.700000*%
%ADD16HorizOval,1.850000X0.000000X0.000000X0.000000X0.000000X0*%
%ADD17HorizOval,1.850000X0.000000X0.000000X0.000000X0.000000X0*%
%ADD18HorizOval,1.850000X0.000000X0.000000X0.000000X0.000000X0*%
%ADD19O,1.700000X1.700000*%
%ADD20C,2.000000*%
%ADD21C,1.400000*%
%ADD22O,1.400000X1.400000*%
%ADD23HorizOval,1.850000X0.000000X0.000000X0.000000X0.000000X0*%
%ADD24R,1.600000X1.600000*%
%ADD25C,1.600000*%
%ADD26R,1.850000X1.700000*%
%ADD27R,2.200000X2.200000*%
%ADD28O,2.200000X2.200000*%
%ADD29RoundRect,0.150000X-0.150000X0.587500X-0.150000X-0.587500X0.150000X-0.587500X0.150000X0.587500X0*%
%ADD30R,1.000000X1.500000*%
%ADD31R,1.700000X1.500000*%
%ADD32C,1.000000*%
%ADD33R,2.000000X1.500000*%
G04 APERTURE END LIST*
D10*
%TO.C,BZ1*%
X129540000Y-49530000D03*
D11*
X134620000Y-49530000D03*
%TD*%
D12*
%TO.C,H5*%
X73660000Y-88900000D03*
%TD*%
D13*
%TO.C,U2*%
X73660000Y-56007000D03*
X116840000Y-81915000D03*
X73660000Y-81915000D03*
D14*
X117856000Y-60071000D03*
D15*
X117856000Y-62611000D03*
X117856000Y-65151000D03*
X117856000Y-67691000D03*
X117856000Y-70231000D03*
X117856000Y-72771000D03*
X117856000Y-75311000D03*
X117856000Y-77851000D03*
%TD*%
D16*
%TO.C,SW4*%
X65765534Y-71292066D03*
X53391165Y-65988765D03*
X62230000Y-74827600D03*
X56926699Y-62453231D03*
%TD*%
D17*
%TO.C,SW2*%
X52121166Y-72338766D03*
X46817865Y-84713135D03*
X55656700Y-75874300D03*
X43282331Y-81177601D03*
%TD*%
D18*
%TO.C,SW5*%
X148864434Y-74553234D03*
X154167735Y-62178865D03*
X145328900Y-71017700D03*
X157703269Y-65714399D03*
%TD*%
D14*
%TO.C,J2*%
X81280000Y-48260000D03*
D19*
X83820000Y-48260000D03*
X86360000Y-48260000D03*
X88900000Y-48260000D03*
X91440000Y-48260000D03*
X93980000Y-48260000D03*
X96520000Y-48260000D03*
X99060000Y-48260000D03*
X101600000Y-48260000D03*
X104140000Y-48260000D03*
X106680000Y-48260000D03*
X109220000Y-48260000D03*
%TD*%
D12*
%TO.C,H1*%
X35560000Y-57150000D03*
%TD*%
D20*
%TO.C,SW10*%
X129250000Y-79300000D03*
X129250000Y-85800000D03*
X124749999Y-79300000D03*
X124750000Y-85800001D03*
%TD*%
D12*
%TO.C,H2*%
X154940000Y-57150000D03*
%TD*%
D21*
%TO.C,R2*%
X74930000Y-67945000D03*
D22*
X74930000Y-60325000D03*
%TD*%
D23*
%TO.C,SW7*%
X134894466Y-55605534D03*
X147268835Y-60908835D03*
X138430000Y-52070000D03*
X143733301Y-64444369D03*
%TD*%
D18*
%TO.C,SW1*%
X46766734Y-64444334D03*
X52070035Y-52069965D03*
X43231200Y-60908800D03*
X55605569Y-55605499D03*
%TD*%
D24*
%TO.C,SW11*%
X68580000Y-45720000D03*
D25*
X71080000Y-45720000D03*
X73580000Y-45720000D03*
X68580000Y-48920000D03*
X71080000Y-48920000D03*
X73580000Y-48920000D03*
%TD*%
%TO.C,C1*%
X104855000Y-78740000D03*
X109855000Y-78740000D03*
%TD*%
%TO.C,C2*%
X42184500Y-49255500D03*
X45720034Y-45719966D03*
%TD*%
D12*
%TO.C,H3*%
X35560000Y-80010000D03*
%TD*%
D20*
%TO.C,SW9*%
X61250000Y-85800000D03*
X61250000Y-79300000D03*
X65750001Y-85800000D03*
X65750000Y-79299999D03*
%TD*%
%TO.C,SW12*%
X110640000Y-89590000D03*
X104140000Y-89590000D03*
X110640000Y-85090000D03*
X104140000Y-85090000D03*
%TD*%
D26*
%TO.C,J1*%
X115570000Y-54610000D03*
D15*
X118110000Y-54610000D03*
X120650000Y-54610000D03*
X123190000Y-54610000D03*
%TD*%
D25*
%TO.C,C3*%
X46990000Y-49490000D03*
X50525534Y-45954466D03*
%TD*%
D16*
%TO.C,SW6*%
X147268834Y-81228866D03*
X134894465Y-75925565D03*
X143733300Y-84764400D03*
X138429999Y-72390031D03*
%TD*%
D12*
%TO.C,H4*%
X154940000Y-80010000D03*
%TD*%
D16*
%TO.C,SW3*%
X45445534Y-71292066D03*
X33071165Y-65988765D03*
X41910000Y-74827600D03*
X36606699Y-62453231D03*
%TD*%
D12*
%TO.C,H6*%
X116840000Y-88900000D03*
%TD*%
D21*
%TO.C,R1*%
X103505000Y-81280000D03*
D22*
X111125000Y-81280000D03*
%TD*%
D18*
%TO.C,SW8*%
X128544434Y-74553234D03*
X133847735Y-62178865D03*
X125008900Y-71017700D03*
X137383269Y-65714399D03*
%TD*%
D27*
%TO.C,D1*%
X69775000Y-53975000D03*
D28*
X59615000Y-53975000D03*
%TD*%
D29*
%TO.C,Q1*%
X61534000Y-59085000D03*
X63434000Y-59085000D03*
X62484000Y-60960000D03*
%TD*%
D14*
%TO.C,J5*%
X69215000Y-75565000D03*
D15*
X69215000Y-78105000D03*
X69215000Y-80645000D03*
X69215000Y-83185000D03*
X69215000Y-85725000D03*
X69215000Y-88265000D03*
X69215000Y-90805000D03*
X56515000Y-81485000D03*
X56515000Y-84885000D03*
%TD*%
D21*
%TO.C,R3*%
X66675000Y-65405000D03*
D22*
X66675000Y-57785000D03*
%TD*%
D30*
%TO.C,JP1*%
X63500000Y-53975000D03*
X64800000Y-53975000D03*
%TD*%
D21*
%TO.C,R4*%
X69215000Y-57785000D03*
D22*
X69215000Y-65405000D03*
%TD*%
D31*
%TO.C,J4*%
X106755000Y-52070000D03*
X106755000Y-66070000D03*
X83755000Y-52070000D03*
X83755000Y-66070000D03*
%TD*%
D14*
%TO.C,J3*%
X100965000Y-69850000D03*
D15*
X103505000Y-69850000D03*
X106045000Y-69850000D03*
X108585000Y-69850000D03*
X111125000Y-69850000D03*
X113665000Y-69850000D03*
%TD*%
D32*
%TO.C,J6*%
X48006000Y-83360000D03*
X48006000Y-89360000D03*
D33*
X51506000Y-86860000D03*
X44506000Y-86860000D03*
X51506000Y-89860000D03*
X44506000Y-89860000D03*
X51506000Y-83360000D03*
X44506000Y-83360000D03*
%TD*%
M02*
