  0
SECTION
  2
HEADER
  9
$ANGBASE
  50
0.0
  9
$ANGDIR
  70
1
  9
$MEASUREMENT
  70
1
  0
ENDSEC
  0
SECTION
  2
TABLES
  0
TABLE
  2
LTYPE
  70
4
  0
LTYPE
  5
40F
  2
CONTINUOUS
  70
0
  3
Solid line
  72
65
  73
0
  40
0.0
  0
LTYPE
  5
410
  2
DASHDOT
 70
0
  3
Dash Dot ____ _ ____ _
 72
65
 73
4
 40
2.0
 49
1.25
 49
-0.25
 49
0.25
 49
-0.25
  0
LTYPE
  5
411
  2
DASHED
 70
0
  3
Dashed __ __ __ __ __
 72
65
 73
2
 40
0.75
 49
0.5
 49
-0.25
  0
LTYPE
  5
43B
  2
DOTTED
 70
0
  3
Dotted .  .  .  .
 72
65
 73
2
 40
0.2
 49
0.0
 49
-0.2
  0
ENDTAB
  0
TABLE
  2
STYLE
  70
4
  0
STYLE
  2
KICAD
  70
0
  40
0
  41
1
  42
1
  50
0
  71
0
  3
isocp.shx
  0
STYLE
  2
KICADB
  70
0
  40
0
  41
1
  42
1
  50
0
  71
0
  3
isocp.shx
  0
STYLE
  2
KICADI
  70
0
  40
0
  41
1
  42
1
  50
15
  71
0
  3
isocp.shx
  0
STYLE
  2
KICADBI
  70
0
  40
0
  41
1
  42
1
  50
15
  71
0
  3
isocp.shx
  0
ENDTAB
  0
TABLE
  2
LAYER
  70
1
  0
LAYER
  2
BLACK
  70
0
  62
7
  6
CONTINUOUS
  0
ENDTAB
  0
ENDSEC
  0
SECTION
  2
ENTITIES
0
CIRCLE
8
BLACK
10
116.7129999999999939
20
-81.5339999999999918
40
1.27
0
CIRCLE
8
BLACK
10
116.7129999999999939
20
-55.6259999999999977
40
1.27
0
CIRCLE
8
BLACK
10
73.7869999999999919
20
-81.5999999999999943
40
1.27
0
CIRCLE
8
BLACK
10
73.7869999999999919
20
-55.6259999999999977
40
1.27
0
CIRCLE
8
BLACK
10
116.8399999999999892
20
-88.8999999999999915
40
1.27
0
CIRCLE
8
BLACK
10
73.6599999999999966
20
-88.8999999999999915
40
1.27
0
CIRCLE
8
BLACK
10
132.0799999999999841
20
-49.5300000000000011
40
3.
0
LINE
8
BLACK
6
CONTINUOUS
10
78.7399999999999949
20
-45.7199999999999989
11
111.7599999999999909
21
-45.7199999999999989
0
LINE
8
BLACK
6
CONTINUOUS
10
111.7599999999999909
20
-45.7199999999999989
11
111.7599999999999909
21
-50.7999999999999972
0
LINE
8
BLACK
6
CONTINUOUS
10
111.7599999999999909
20
-50.7999999999999972
11
78.7399999999999949
21
-50.7999999999999972
0
LINE
8
BLACK
6
CONTINUOUS
10
78.7399999999999949
20
-50.7999999999999972
11
78.7399999999999949
21
-45.7199999999999989
0
CIRCLE
8
BLACK
10
127.
20
-82.5499999999999972
40
2.5
0
CIRCLE
8
BLACK
10
35.5599999999999952
20
-57.1499999999999986
40
1.27
0
LINE
8
BLACK
6
CONTINUOUS
10
159.0039999999999907
20
-65.7860000000000014
11
159.0039999999999907
21
-70.8659999999999997
0
LINE
8
BLACK
6
CONTINUOUS
10
159.0039999999999907
20
-70.8659999999999997
11
143.7639999999999816
21
-86.1059999999999945
0
LINE
8
BLACK
6
CONTINUOUS
10
143.7639999999999816
20
-86.1059999999999945
11
138.6839999999999975
21
-86.1059999999999945
0
LINE
8
BLACK
6
CONTINUOUS
10
138.6839999999999975
20
-86.1059999999999945
11
123.4439999999999884
21
-70.8659999999999997
0
LINE
8
BLACK
6
CONTINUOUS
10
123.4439999999999884
20
-70.8659999999999997
11
123.4439999999999884
21
-65.7860000000000014
0
LINE
8
BLACK
6
CONTINUOUS
10
123.4439999999999884
20
-65.7860000000000014
11
138.6839999999999975
21
-50.5459999999999994
0
LINE
8
BLACK
6
CONTINUOUS
10
138.6839999999999975
20
-50.5459999999999994
11
143.7639999999999816
21
-50.5459999999999994
0
LINE
8
BLACK
6
CONTINUOUS
10
143.7639999999999816
20
-50.5459999999999994
11
159.0039999999999907
21
-65.7860000000000014
0
LINE
8
BLACK
6
CONTINUOUS
10
67.3100000000000023
20
-65.7860000000000014
11
67.3100000000000023
21
-70.8659999999999997
0
LINE
8
BLACK
6
CONTINUOUS
10
67.3100000000000023
20
-70.8659999999999997
11
52.0700000000000003
21
-86.1059999999999945
0
LINE
8
BLACK
6
CONTINUOUS
10
52.0700000000000003
20
-86.1059999999999945
11
46.9899999999999949
21
-86.1059999999999945
0
LINE
8
BLACK
6
CONTINUOUS
10
46.9899999999999949
20
-86.1059999999999945
11
31.75
21
-70.8659999999999997
0
LINE
8
BLACK
6
CONTINUOUS
10
31.75
20
-70.8659999999999997
11
31.75
21
-65.7860000000000014
0
LINE
8
BLACK
6
CONTINUOUS
10
31.75
20
-65.7860000000000014
11
46.9899999999999949
21
-50.5459999999999994
0
LINE
8
BLACK
6
CONTINUOUS
10
46.9899999999999949
20
-50.5459999999999994
11
52.0700000000000003
21
-50.5459999999999994
0
LINE
8
BLACK
6
CONTINUOUS
10
52.0700000000000003
20
-50.5459999999999994
11
67.3100000000000023
21
-65.7860000000000014
0
LINE
8
BLACK
6
CONTINUOUS
10
160.0199999999999818
20
-55.8799999999999955
11
160.0199999999999818
21
-81.2800000000000011
0
LINE
8
BLACK
6
CONTINUOUS
10
160.0199999999999818
20
-81.2800000000000011
11
147.3199999999999932
21
-93.9799999999999898
0
LINE
8
BLACK
6
CONTINUOUS
10
147.3199999999999932
20
-93.9799999999999898
11
43.1799999999999997
21
-93.9799999999999898
0
LINE
8
BLACK
6
CONTINUOUS
10
43.1799999999999997
20
-93.9799999999999898
11
30.4799999999999969
21
-81.2800000000000011
0
LINE
8
BLACK
6
CONTINUOUS
10
30.4799999999999969
20
-81.2800000000000011
11
30.4799999999999969
21
-55.8799999999999955
0
LINE
8
BLACK
6
CONTINUOUS
10
30.4799999999999969
20
-55.8799999999999955
11
43.1799999999999997
21
-43.1799999999999997
0
LINE
8
BLACK
6
CONTINUOUS
10
43.1799999999999997
20
-43.1799999999999997
11
147.3199999999999932
21
-43.1799999999999997
0
LINE
8
BLACK
6
CONTINUOUS
10
147.3199999999999932
20
-43.1799999999999997
11
160.0199999999999818
21
-55.8799999999999955
0
LINE
8
BLACK
6
CONTINUOUS
10
76.9620000000000033
20
-53.5939999999999941
11
114.2999999999999972
21
-53.5939999999999941
0
LINE
8
BLACK
6
CONTINUOUS
10
114.2999999999999972
20
-53.5939999999999941
11
114.2999999999999972
21
-83.5660000000000025
0
LINE
8
BLACK
6
CONTINUOUS
10
114.2999999999999972
20
-83.5660000000000025
11
76.9620000000000033
21
-83.5660000000000025
0
LINE
8
BLACK
6
CONTINUOUS
10
76.9620000000000033
20
-83.5660000000000025
11
76.9620000000000033
21
-53.5939999999999941
0
CIRCLE
8
BLACK
10
35.5599999999999952
20
-80.0099999999999909
40
1.27
0
CIRCLE
8
BLACK
10
154.9399999999999977
20
-57.1499999999999986
40
1.27
0
CIRCLE
8
BLACK
10
63.5
20
-82.5499999999999972
40
2.5
0
CIRCLE
8
BLACK
10
107.9499999999999886
20
-87.3759999999999906
40
2.5
0
CIRCLE
8
BLACK
10
154.9399999999999977
20
-80.0099999999999909
40
1.27
  0
ENDSEC
  0
EOF
