M48
; DRILL file {KiCad 8.0.1} date 2024-07-03T17:25:46+0300
; FORMAT={-:-/ absolute / inch / decimal}
; #@! TF.CreationDate,2024-07-03T17:25:46+03:00
; #@! TF.GenerationSoftware,Kicad,Pcbnew,8.0.1
; #@! TF.FileFunction,Plated,1,2,PTH
FMAT,2
INCH
; #@! TA.AperFunction,Plated,PTH,ViaDrill
T1C0.0157
; #@! TA.AperFunction,Plated,PTH,ComponentDrill
T2C0.0276
; #@! TA.AperFunction,Plated,PTH,ComponentDrill
T3C0.0315
; #@! TA.AperFunction,Plated,PTH,ComponentDrill
T4C0.0354
; #@! TA.AperFunction,Plated,PTH,ComponentDrill
T5C0.0394
; #@! TA.AperFunction,Plated,PTH,ComponentDrill
T6C0.0433
; #@! TA.AperFunction,Plated,PTH,ComponentDrill
T7C0.0512
; #@! TA.AperFunction,Plated,PTH,ComponentDrill
T8C0.0787
; #@! TA.AperFunction,Plated,PTH,ComponentDrill
T9C0.1063
%
G90
G05
T1
X2.2022Y-1.7401
X2.59Y-2.94
X2.7Y-2.8964
X2.7906Y-3.2881
X2.8463Y-2.9765
X3.02Y-2.9246
X3.04Y-3.17
X3.05Y-3.3852
X3.2312Y-3.16
X3.2597Y-3.025
X3.3Y-2.975
X3.347Y-2.525
X3.375Y-3.325
X3.3871Y-2.5
X3.4Y-2.875
X3.4268Y-2.55
X3.45Y-2.975
X3.5175Y-2.5298
X3.55Y-2.975
X3.5843Y-2.5343
X3.6Y-2.875
X3.625Y-3.325
X3.6542Y-2.5387
X3.675Y-2.75
X3.7Y-2.975
X3.7022Y-2.5507
X3.725Y-2.75
X3.7465Y-2.575
X3.975Y-3.385
X3.99Y-2.97
X3.99Y-3.19
X4.3Y-2.6075
X4.75Y-2.84
T2
X2.625Y-2.275
X2.625Y-2.575
X2.725Y-2.275
X2.725Y-2.575
X2.95Y-2.375
X2.95Y-2.675
X4.075Y-3.2
X4.375Y-3.2
T3
X1.6608Y-1.9392
X1.8Y-1.8
X1.85Y-1.9484
X1.9892Y-1.8092
X2.7Y-1.8
X2.7Y-1.926
X2.7984Y-1.8
X2.7984Y-1.926
X2.8969Y-1.8
X2.8969Y-1.926
X4.1281Y-3.1
X4.325Y-3.1
T5
X2.225Y-3.2081
X2.225Y-3.3419
X2.725Y-2.975
X2.725Y-3.075
X2.725Y-3.175
X2.725Y-3.275
X2.725Y-3.375
X2.725Y-3.475
X2.725Y-3.575
X3.2Y-1.9
X3.2974Y-2.05
X3.2974Y-2.6012
X3.3Y-1.9
X3.4Y-1.9
X3.5Y-1.9
X3.6Y-1.9
X3.7Y-1.9
X3.8Y-1.9
X3.9Y-1.9
X3.975Y-2.75
X4.0Y-1.9
X4.075Y-2.75
X4.1Y-1.9
X4.175Y-2.75
X4.2Y-1.9
X4.203Y-2.05
X4.203Y-2.6012
X4.275Y-2.75
X4.3Y-1.9
X4.375Y-2.75
X4.475Y-2.75
X4.55Y-2.15
X4.64Y-2.365
X4.64Y-2.465
X4.64Y-2.565
X4.64Y-2.665
X4.64Y-2.765
X4.64Y-2.865
X4.64Y-2.965
X4.64Y-3.065
X4.65Y-2.15
X4.75Y-2.15
X4.85Y-2.15
T6
X2.347Y-2.125
X2.4114Y-3.122
X2.4114Y-3.378
X2.5886Y-3.122
X2.5886Y-3.378
X2.747Y-2.125
X4.1Y-3.35
X4.1Y-3.5272
X4.3559Y-3.35
X4.3559Y-3.5272
X4.9114Y-3.122
X4.9114Y-3.378
X5.0886Y-3.122
X5.0886Y-3.378
T7
X1.302Y-2.598
X1.4412Y-2.4588
X1.65Y-2.946
X1.702Y-2.398
X1.704Y-3.196
X1.7892Y-2.8068
X1.8412Y-2.5372
X1.8432Y-3.3352
X2.05Y-2.05
X2.052Y-2.848
X2.102Y-2.598
X2.1892Y-2.1892
X2.1912Y-2.9872
X2.2412Y-2.4588
X2.45Y-2.946
X2.5892Y-2.8068
X4.9216Y-2.796
X5.0608Y-2.9352
X5.2696Y-2.448
X5.3108Y-2.9892
X5.3108Y-2.1892
X5.4088Y-2.5872
X5.45Y-2.85
X5.45Y-2.05
X5.6588Y-3.3372
X5.6588Y-2.5372
X5.7216Y-2.796
X5.798Y-3.198
X5.798Y-2.398
X5.8608Y-2.9352
X6.0696Y-2.448
X6.2088Y-2.5872
T8
X2.9Y-2.205
X2.9Y-3.225
X4.6Y-3.225
T9
X1.4Y-2.25
X1.4Y-3.15
X2.9Y-3.5
X4.6Y-3.5
X6.1Y-2.25
X6.1Y-3.15
T4
G00X5.0606Y-1.95
M15
G01X5.1394Y-1.95
M16
G05
G00X5.2606Y-1.95
M15
G01X5.3394Y-1.95
M16
G05
M30
