%TF.GenerationSoftware,KiCad,Pcbnew,8.0.1*%
%TF.CreationDate,2024-07-03T17:25:44+03:00*%
%TF.ProjectId,main,6d61696e-2e6b-4696-9361-645f70636258,rev?*%
%TF.SameCoordinates,Original*%
%TF.FileFunction,Soldermask,Top*%
%TF.FilePolarity,Negative*%
%FSLAX46Y46*%
G04 Gerber Fmt 4.6, Leading zero omitted, Abs format (unit mm)*
G04 Created by KiCad (PCBNEW 8.0.1) date 2024-07-03 17:25:44*
%MOMM*%
%LPD*%
G01*
G04 APERTURE LIST*
G04 Aperture macros list*
%AMRoundRect*
0 Rectangle with rounded corners*
0 $1 Rounding radius*
0 $2 $3 $4 $5 $6 $7 $8 $9 X,Y pos of 4 corners*
0 Add a 4 corners polygon primitive as box body*
4,1,4,$2,$3,$4,$5,$6,$7,$8,$9,$2,$3,0*
0 Add four circle primitives for the rounded corners*
1,1,$1+$1,$2,$3*
1,1,$1+$1,$4,$5*
1,1,$1+$1,$6,$7*
1,1,$1+$1,$8,$9*
0 Add four rect primitives between the rounded corners*
20,1,$1+$1,$2,$3,$4,$5,0*
20,1,$1+$1,$4,$5,$6,$7,0*
20,1,$1+$1,$6,$7,$8,$9,0*
20,1,$1+$1,$8,$9,$2,$3,0*%
%AMHorizOval*
0 Thick line with rounded ends*
0 $1 width*
0 $2 $3 position (X,Y) of the first rounded end (center of the circle)*
0 $4 $5 position (X,Y) of the second rounded end (center of the circle)*
0 Add line between two ends*
20,1,$1,$2,$3,$4,$5,0*
0 Add two circle primitives to create the rounded ends*
1,1,$1,$2,$3*
1,1,$1,$4,$5*%
%AMFreePoly0*
4,1,105,4.745702,1.423752,5.106749,1.372997,5.461512,1.288893,5.806920,1.172170,6.139979,1.023838,6.457805,0.845182,6.757643,0.637750,7.036897,0.403340,7.293147,0.143982,7.367054,0.036396,7.410596,-0.086653,7.420809,-0.216780,7.396994,-0.345115,7.340774,-0.462913,7.255982,-0.562147,7.148396,-0.636054,7.068995,-0.664151,7.071500,-4.000500,7.068618,-4.029764,7.046220,-4.083836,
7.004836,-4.125220,6.950764,-4.147618,6.892236,-4.147618,6.838164,-4.125220,6.796780,-4.083836,6.774382,-4.029764,6.771857,-0.666916,6.766885,-0.665994,6.649087,-0.609774,6.549852,-0.524983,6.440744,-0.403693,6.196789,-0.187015,5.930196,0.001111,5.798843,0.073345,5.801500,-4.635499,5.798618,-4.664764,5.776220,-4.718836,5.734836,-4.760220,5.680764,-4.782618,5.622236,-4.782618,
5.568164,-4.760220,5.526781,-4.718836,5.504382,-4.664764,5.501628,0.217156,5.342634,0.282709,5.028994,0.372669,4.707278,0.427098,4.528892,0.437074,4.531500,-4.635500,4.528618,-4.664764,4.506220,-4.718836,4.464836,-4.760220,4.410765,-4.782618,4.352236,-4.782618,4.298164,-4.760220,4.256780,-4.718836,4.234382,-4.664764,4.231759,0.436942,4.055722,0.427097,3.734006,0.372669,
3.420366,0.282708,3.258763,0.216081,3.261500,-4.635500,3.258618,-4.664764,3.236220,-4.718836,3.194836,-4.760220,3.140764,-4.782618,3.082236,-4.782619,3.028164,-4.760220,2.986779,-4.718836,2.964382,-4.664764,2.961710,0.071999,2.832804,0.001112,2.566211,-0.187015,2.322256,-0.403693,2.213147,-0.524982,2.113913,-0.609774,1.996115,-0.665993,1.988997,-0.667314,1.991500,-4.000500,
1.988618,-4.029764,1.966220,-4.083837,1.924837,-4.125220,1.870764,-4.147618,1.812236,-4.147618,1.758164,-4.125220,1.716780,-4.083836,1.694382,-4.029763,1.691854,-0.663390,1.614604,-0.636055,1.507018,-0.562147,1.422226,-0.462913,1.413439,-0.444500,-1.841500,-0.444500,-1.841500,0.444500,1.775136,0.444500,2.005357,0.637750,2.305195,0.845182,2.623021,1.023838,2.956080,1.172170,
3.301489,1.288893,3.656252,1.372997,4.017298,1.423752,4.381499,1.440720,4.745702,1.423752,4.745702,1.423752,$1*%
%AMFreePoly1*
4,1,96,4.682202,1.550754,5.043247,1.499999,5.398012,1.415895,5.743420,1.299172,6.076479,1.150840,6.394305,0.972183,6.694143,0.764752,6.973397,0.530342,7.229647,0.270984,7.303554,0.163398,7.347097,0.040349,7.357309,-0.089779,7.333494,-0.218113,7.277274,-0.335911,7.192482,-0.435145,7.084896,-0.509052,6.961847,-0.552595,6.831720,-0.562807,6.703385,-0.538992,6.585587,-0.482772,
6.486352,-0.397982,6.377244,-0.276692,6.370752,-0.270925,6.373000,-4.254497,6.370118,-4.283761,6.347720,-4.337833,6.306336,-4.379217,6.252264,-4.401615,6.193736,-4.401615,6.139664,-4.379217,6.098280,-4.337833,6.075882,-4.283761,6.073475,-0.017804,5.866696,0.128113,5.580789,0.285341,5.279134,0.409711,5.100315,0.461000,5.102999,-4.889497,5.100118,-4.918761,5.077720,-4.972833,
5.036336,-5.014217,4.982264,-5.036615,4.923736,-5.036616,4.869664,-5.014217,4.828280,-4.972832,4.805882,-4.918761,4.803149,0.527136,4.643778,0.554100,4.318000,0.572320,3.992222,0.554100,3.830282,0.526702,3.833000,-4.889497,3.830118,-4.918761,3.807721,-4.972833,3.766336,-5.014217,3.712264,-5.036616,3.653736,-5.036615,3.599664,-5.014217,3.558280,-4.972833,3.535882,-4.918761,
3.533183,0.460283,3.356866,0.409711,3.055211,0.285341,2.769304,0.128113,2.560272,-0.019394,2.563000,-4.254497,2.560118,-4.283761,2.537720,-4.337833,2.496336,-4.379217,2.442264,-4.401615,2.383736,-4.401615,2.329664,-4.379217,2.288280,-4.337833,2.265882,-4.283761,2.263297,-0.272656,2.258756,-0.276691,2.149647,-0.397979,2.050413,-0.482771,1.932615,-0.538992,1.804280,-0.562807,
1.674153,-0.552595,1.551104,-0.509052,1.457132,-0.444497,-1.778000,-0.444497,-1.778000,0.444497,1.577787,0.444497,1.662602,0.530342,1.941857,0.764752,2.241695,0.972184,2.559521,1.150840,2.892580,1.299172,3.237988,1.415895,3.592752,1.499999,3.953798,1.550754,4.318000,1.567722,4.682202,1.550754,4.682202,1.550754,$1*%
G04 Aperture macros list end*
%ADD10R,4.000000X2.000000*%
%ADD11O,4.000000X2.000000*%
%ADD12C,4.700000*%
%ADD13C,3.000000*%
%ADD14R,1.700000X1.700000*%
%ADD15C,1.700000*%
%ADD16HorizOval,1.850000X0.000000X0.000000X0.000000X0.000000X0*%
%ADD17FreePoly0,135.000000*%
%ADD18FreePoly1,315.000000*%
%ADD19HorizOval,1.850000X0.000000X0.000000X0.000000X0.000000X0*%
%ADD20FreePoly0,225.000000*%
%ADD21FreePoly1,45.000000*%
%ADD22HorizOval,1.850000X0.000000X0.000000X0.000000X0.000000X0*%
%ADD23FreePoly0,45.000000*%
%ADD24FreePoly1,225.000000*%
%ADD25O,1.700000X1.700000*%
%ADD26C,2.000000*%
%ADD27RoundRect,0.375000X-0.625000X-0.375000X0.625000X-0.375000X0.625000X0.375000X-0.625000X0.375000X0*%
%ADD28RoundRect,0.500000X-0.500000X-1.400000X0.500000X-1.400000X0.500000X1.400000X-0.500000X1.400000X0*%
%ADD29C,1.400000*%
%ADD30O,1.400000X1.400000*%
%ADD31HorizOval,1.850000X0.000000X0.000000X0.000000X0.000000X0*%
%ADD32FreePoly0,315.000000*%
%ADD33FreePoly1,135.000000*%
%ADD34R,1.600000X1.600000*%
%ADD35C,1.600000*%
%ADD36R,1.850000X1.700000*%
%ADD37R,1.500000X0.900000*%
%ADD38R,0.900000X1.500000*%
%ADD39R,0.900000X0.900000*%
%ADD40R,2.200000X2.200000*%
%ADD41O,2.200000X2.200000*%
%ADD42R,1.700000X1.500000*%
%ADD43C,1.000000*%
G04 APERTURE END LIST*
D10*
%TO.C,BZ1*%
X129540000Y-49530000D03*
D11*
X134620000Y-49530000D03*
%TD*%
D12*
%TO.C,H5*%
X73660000Y-88900000D03*
%TD*%
D13*
%TO.C,U2*%
X73660000Y-56007000D03*
X116840000Y-81915000D03*
X73660000Y-81915000D03*
D14*
X117856000Y-60071000D03*
D15*
X117856000Y-62611000D03*
X117856000Y-65151000D03*
X117856000Y-67691000D03*
X117856000Y-70231000D03*
X117856000Y-72771000D03*
X117856000Y-75311000D03*
X117856000Y-77851000D03*
%TD*%
D16*
%TO.C,SW4*%
X65765534Y-71292066D03*
X53391165Y-65988765D03*
X62230000Y-74827600D03*
D17*
X60613554Y-73570364D03*
D18*
X58143981Y-63826788D03*
D16*
X56926699Y-62453231D03*
%TD*%
D19*
%TO.C,SW2*%
X52121166Y-72338766D03*
X46817865Y-84713135D03*
X55656700Y-75874300D03*
D20*
X54399464Y-77490746D03*
D21*
X44655888Y-79960319D03*
D19*
X43282331Y-81177601D03*
%TD*%
D22*
%TO.C,SW5*%
X148864434Y-74553234D03*
X154167735Y-62178865D03*
X145328900Y-71017700D03*
D23*
X146586136Y-69401254D03*
D24*
X156329712Y-66931681D03*
D22*
X157703269Y-65714399D03*
%TD*%
D14*
%TO.C,J2*%
X81280000Y-48260000D03*
D25*
X83820000Y-48260000D03*
X86360000Y-48260000D03*
X88900000Y-48260000D03*
X91440000Y-48260000D03*
X93980000Y-48260000D03*
X96520000Y-48260000D03*
X99060000Y-48260000D03*
X101600000Y-48260000D03*
X104140000Y-48260000D03*
X106680000Y-48260000D03*
X109220000Y-48260000D03*
%TD*%
D12*
%TO.C,H1*%
X35560000Y-57150000D03*
%TD*%
D26*
%TO.C,SW10*%
X129250000Y-79300000D03*
X129250000Y-85800000D03*
X124749999Y-79300000D03*
X124750000Y-85800001D03*
%TD*%
D12*
%TO.C,H2*%
X154940000Y-57150000D03*
%TD*%
D27*
%TO.C,U3*%
X55880000Y-45960000D03*
X55880000Y-48260000D03*
X55880000Y-50560000D03*
D28*
X62180000Y-48260000D03*
%TD*%
D29*
%TO.C,R2*%
X74930000Y-67945000D03*
D30*
X74930000Y-60325000D03*
%TD*%
D31*
%TO.C,SW7*%
X134894466Y-55605534D03*
X147268835Y-60908835D03*
X138430000Y-52070000D03*
D32*
X140046446Y-53327236D03*
D33*
X142516019Y-63070812D03*
D31*
X143733301Y-64444369D03*
%TD*%
D22*
%TO.C,SW1*%
X46766734Y-64444334D03*
X52070035Y-52069965D03*
X43231200Y-60908800D03*
D23*
X44488436Y-59292354D03*
D24*
X54232012Y-56822781D03*
D22*
X55605569Y-55605499D03*
%TD*%
D34*
%TO.C,SW11*%
X68580000Y-45720000D03*
D35*
X71080000Y-45720000D03*
X73580000Y-45720000D03*
X68580000Y-48920000D03*
X71080000Y-48920000D03*
X73580000Y-48920000D03*
%TD*%
%TO.C,C1*%
X104855000Y-78740000D03*
X109855000Y-78740000D03*
%TD*%
%TO.C,C2*%
X42184500Y-49255500D03*
X45720034Y-45719966D03*
%TD*%
D12*
%TO.C,H3*%
X35560000Y-80010000D03*
%TD*%
D26*
%TO.C,SW9*%
X61250000Y-85800000D03*
X61250000Y-79300000D03*
X65750001Y-85800000D03*
X65750000Y-79299999D03*
%TD*%
%TO.C,SW12*%
X110640000Y-89590000D03*
X104140000Y-89590000D03*
X110640000Y-85090000D03*
X104140000Y-85090000D03*
%TD*%
D36*
%TO.C,J1*%
X115570000Y-54610000D03*
D15*
X118110000Y-54610000D03*
X120650000Y-54610000D03*
X123190000Y-54610000D03*
%TD*%
D35*
%TO.C,C3*%
X46990000Y-49490000D03*
X50525534Y-45954466D03*
%TD*%
D16*
%TO.C,SW6*%
X147268834Y-81228866D03*
X134894465Y-75925565D03*
X143733300Y-84764400D03*
D17*
X142116854Y-83507164D03*
D18*
X139647281Y-73763588D03*
D16*
X138429999Y-72390031D03*
%TD*%
D12*
%TO.C,H4*%
X154940000Y-80010000D03*
%TD*%
D37*
%TO.C,U1*%
X97650000Y-85984000D03*
X97650000Y-84714000D03*
X97650000Y-83444000D03*
X97650000Y-82174000D03*
X97650000Y-80904000D03*
X97650000Y-79634000D03*
X97650000Y-78364000D03*
X97650000Y-77094000D03*
X97650000Y-75824000D03*
X97650000Y-74554000D03*
X97650000Y-73284000D03*
X97650000Y-72014000D03*
X97650000Y-70744000D03*
X97650000Y-69474000D03*
D38*
X95885000Y-68224000D03*
X94615000Y-68224000D03*
X93345000Y-68224000D03*
X92075000Y-68224000D03*
X90805000Y-68224000D03*
X89535000Y-68224000D03*
X88265000Y-68224000D03*
X86995000Y-68224000D03*
X85725000Y-68224000D03*
X84455000Y-68224000D03*
X83185000Y-68224000D03*
X81915000Y-68224000D03*
D37*
X80150000Y-69474000D03*
X80150000Y-70744000D03*
X80150000Y-72014000D03*
X80150000Y-73284000D03*
X80150000Y-74554000D03*
X80150000Y-75824000D03*
X80150000Y-77094000D03*
X80150000Y-78364000D03*
X80150000Y-79634000D03*
X80150000Y-80904000D03*
X80150000Y-82174000D03*
X80150000Y-83444000D03*
X80150000Y-84714000D03*
X80150000Y-85984000D03*
D39*
X91800000Y-79664000D03*
X91800000Y-78264000D03*
X91800000Y-76864000D03*
X91800000Y-76864000D03*
X90400000Y-79664000D03*
X90400000Y-79664000D03*
X90400000Y-78264000D03*
X90400000Y-76864000D03*
X89000000Y-79664000D03*
X89000000Y-78264000D03*
X89000000Y-76864000D03*
%TD*%
D16*
%TO.C,SW3*%
X45445534Y-71292066D03*
X33071165Y-65988765D03*
X41910000Y-74827600D03*
D17*
X40293554Y-73570364D03*
D18*
X37823981Y-63826788D03*
D16*
X36606699Y-62453231D03*
%TD*%
D12*
%TO.C,H6*%
X116840000Y-88900000D03*
%TD*%
D29*
%TO.C,R1*%
X103505000Y-81280000D03*
D30*
X111125000Y-81280000D03*
%TD*%
D22*
%TO.C,SW8*%
X128544434Y-74553234D03*
X133847735Y-62178865D03*
X125008900Y-71017700D03*
D23*
X126266136Y-69401254D03*
D24*
X136009712Y-66931681D03*
D22*
X137383269Y-65714399D03*
%TD*%
D40*
%TO.C,D1*%
X69775000Y-53975000D03*
D41*
X59615000Y-53975000D03*
%TD*%
D14*
%TO.C,J5*%
X69215000Y-75565000D03*
D15*
X69215000Y-78105000D03*
X69215000Y-80645000D03*
X69215000Y-83185000D03*
X69215000Y-85725000D03*
X69215000Y-88265000D03*
X69215000Y-90805000D03*
X56515000Y-81485000D03*
X56515000Y-84885000D03*
%TD*%
D29*
%TO.C,R3*%
X66675000Y-65405000D03*
D30*
X66675000Y-57785000D03*
%TD*%
D29*
%TO.C,R4*%
X69215000Y-57785000D03*
D30*
X69215000Y-65405000D03*
%TD*%
D42*
%TO.C,J4*%
X106755000Y-52070000D03*
X106755000Y-66070000D03*
X83755000Y-52070000D03*
X83755000Y-66070000D03*
%TD*%
D14*
%TO.C,J3*%
X100965000Y-69850000D03*
D15*
X103505000Y-69850000D03*
X106045000Y-69850000D03*
X108585000Y-69850000D03*
X111125000Y-69850000D03*
X113665000Y-69850000D03*
%TD*%
D43*
%TO.C,J6*%
X48006000Y-83360000D03*
X48006000Y-89360000D03*
%TD*%
M02*
