<svg id="gpio-example" xmlns="http://www.w3.org/2000/svg" viewBox="0 0 20 20" style="width: 100%; max-width: 400px">
    <path d="M 2.5 6 L 8 6" stroke="#00AA00" stroke-width="0.25" />
    <circle cx="2" cy="6" r="0.5" fill="none" stroke="#DD0044" stroke-width="0.25" />
    <text x="4" y="4.5" font-size="1.5" font-family="Arial">GPIO12</text>
    <path d="
            M 8 6 L 10 6
            M 12 6 L 14 6
            M 12 6 L 10 5 L 10 7 Z
            M 12 5 L 12 7
            M 12.5 5.5 L 14 4 M 13 4 L 14 4 L 14 5
            M 14 5.5 L 15.5 4 M 14.5 4 L 15.5 4 L 15.5 5
        " stroke-width="0.25" fill="none" stroke="#DD0044" />
    <text x="11" y="3" font-size="2" font-family="Arial">D1</text>
    <path d="
            M 14 6 L 16 6 L 16 8
        " stroke="#00AA00" fill="none" stroke-width="0.25" />
    <path d="
            M 16 8 L 16 9
            M 15 9 L 17 9 L 17 13 L 15 13 Z
            M 16 13 L 16 14
        " stroke="#DD0044" fill="none" stroke-width="0.25" />
    <text x="13.5" y="10" font-size="2" font-family="Arial">R1</text>
    <text x="12" y="12" font-size="1" font-family="Arial">80~150 Ом</text>
    <path d="
            M 16 14 L 16 16
        " stroke="#00AA00" fill="none" stroke-width="0.25" />
    // Ground symbol
    <path d="
            M 15 16 L 17 16 L 16 17 Z
        " stroke="#00AA00" fill="none" stroke-width="0.25" />
    <text x="16" y="19" font-size="2" font-family="Arial">GND</text>

    <defs>
        <style type="text/css">
            <![CDATA[
                #gpio-example text {
                    font-family: sans-serif;
                    text-anchor: middle;
                    dominant-baseline: middle;
                }
                ]]>
        </style>
    </defs>
</svg>
