<?xml version="1.0" encoding="UTF-8" standalone="no"?>
<svg width="38cm" height="61.999996cm" viewBox="0 0 4488.1866 7322.8305" version="1.1" id="svg3" sodipodi:docname="trident.svg" inkscape:version="1.1.2 (0a00cf5339, 2022-02-04, custom)" inkscape:export-filename="/home/anderson/documents/trident/trident.png" inkscape:export-xdpi="96" inkscape:export-ydpi="96" xmlns:inkscape="http://www.inkscape.org/namespaces/inkscape" xmlns:sodipodi="http://sodipodi.sourceforge.net/DTD/sodipodi-0.dtd" xmlns="http://www.w3.org/2000/svg" xmlns:svg="http://www.w3.org/2000/svg" xmlns:rdf="http://www.w3.org/1999/02/22-rdf-syntax-ns#" xmlns:cc="http://creativecommons.org/ns#" xmlns:dc="http://purl.org/dc/elements/1.1/">
  <title id="title1183">Ukraine Trident</title>
  <defs id="defs7">
    <marker style="overflow:visible" id="Arrow1Mstart" refX="0" refY="0" orient="auto" inkscape:stockid="Arrow1Mstart" inkscape:isstock="true">
      <path transform="matrix(0.4,0,0,0.4,4,0)" style="fill:context-stroke;fill-rule:evenodd;stroke:context-stroke;stroke-width:1pt" d="M 0,0 5,-5 -12.5,0 5,5 Z" id="path1921"/>
    </marker>
    <marker style="overflow:visible" id="Arrow1Lstart" refX="0" refY="0" orient="auto" inkscape:stockid="Arrow1Lstart" inkscape:isstock="true">
      <path transform="matrix(0.8,0,0,0.8,10,0)" style="fill:context-stroke;fill-rule:evenodd;stroke:context-stroke;stroke-width:1pt" d="M 0,0 5,-5 -12.5,0 5,5 Z" id="path1915"/>
    </marker>
  </defs>
  <sodipodi:namedview id="namedview5" pagecolor="#ffffff" bordercolor="#666666" borderopacity="1.0" inkscape:pageshadow="2" inkscape:pageopacity="0.0" inkscape:pagecheckerboard="true" inkscape:document-units="cm" showgrid="true" units="cm" scale-x="118.11018" inkscape:zoom="0.25000001" inkscape:rotation="1" inkscape:cx="1038.289" inkscape:cy="1268.0725" inkscape:window-width="1920" inkscape:window-height="1041" inkscape:window-x="0" inkscape:window-y="0" inkscape:window-maximized="1" inkscape:current-layer="svg3" inkscape:snap-path-clip="false" inkscape:snap-path-mask="false" objecttolerance="20" guidetolerance="20" inkscape:snap-perpendicular="false" inkscape:snap-tangential="false" inkscape:object-paths="false" inkscape:snap-intersection-paths="false" inkscape:snap-smooth-nodes="false" inkscape:snap-midpoints="false" inkscape:snap-bbox="true" inkscape:snap-global="true" inkscape:bbox-paths="true" inkscape:bbox-nodes="true" inkscape:snap-bbox-edge-midpoints="true" inkscape:snap-bbox-midpoints="true" inkscape:snap-nodes="true" inkscape:snap-object-midpoints="false" inkscape:snap-center="false" inkscape:snap-text-baseline="false" inkscape:snap-others="false" inkscape:object-nodes="true" fit-margin-top="2" fit-margin-left="2" fit-margin-right="2" fit-margin-bottom="2">
    <inkscape:grid type="xygrid" id="grid2875" spacingx="14.763771" spacingy="14.763771" originx="1299.2119" originy="2687.0066" units="cm" empspacing="4" dotted="false" snapvisiblegridlinesonly="true" enabled="true" visible="true"/>
  </sodipodi:namedview>
  <path style="color:#000000;fill:#000000;stroke-width:4;-inkscape-stroke:none" d="m 2125.9831,1181.1016 c -2.1331,1149.9713 -0.7826,1649.0673 0,3248.0296 L 236.22045,826.77125 c 0,1692.91235 -1e-4,3503.93475 -1e-4,5196.84715 H 1712.5976 L 2244.0933,7086.61 2775.5891,6023.6184 H 4251.9663 V 826.77125 L 2362.2035,4429.1312 c -0.8046,-1603.6664 -2.1395,-2094.6395 0,-3248.0296 L 2242.7073,236.22035 Z m 1889.7628,590.5509 V 4251.966 l -1003.9364,944.8812 -649.606,-295.2752 z m -3543.3052,0 L 2125.9831,4901.572 1476.3772,5196.8472 472.4407,4251.966 Z m 0,2775.5891 826.7712,767.716 -826.7712,413.3856 z m 3543.3052,0 v 1181.1016 l -826.7712,-413.3856 z m -1653.5424,590.5508 472.4408,236.22 -413.3858,413.3856 h -59.055 c -0.4121,-236.4524 0.236,-410.944 0,-649.6056 z m -236.2204,0 c 0.2356,237.4876 -0.41,414.302 0,649.6056 h -59.0551 l -413.3856,-413.3856 z m -649.6059,354.3304 295.2754,295.2752 H 826.77122 Z m 1535.4323,0 649.6056,295.2752 h -944.8812 z m -1062.9916,531.4956 h 59.0551 l 118.1101,118.1104 c 0.2028,92.6668 -0.2348,144.3996 0,236.2204 z m 531.4956,0 h 59.0552 l -177.1652,354.3308 c -0.236,-91.9576 0.2036,-143.4096 0,-236.2204 z" id="Trident" sodipodi:nodetypes="ccccccccccccccccccccccccccccccccccccccccccccccccccccccccccc"/>
  <metadata id="metadata1165">
    <rdf:RDF>
      <cc:License rdf:about="http://creativecommons.org/publicdomain/zero/1.0/">
        <cc:permits rdf:resource="http://creativecommons.org/ns#Reproduction"/>
        <cc:permits rdf:resource="http://creativecommons.org/ns#Distribution"/>
        <cc:permits rdf:resource="http://creativecommons.org/ns#DerivativeWorks"/>
      </cc:License>
      <cc:Work rdf:about="">
        <cc:license rdf:resource="http://creativecommons.org/publicdomain/zero/1.0/"/>
        <dc:creator>
          <cc:Agent>
            <dc:title>Andrew Dunai</dc:title>
          </cc:Agent>
        </dc:creator>
        <dc:source>https://dun.ai</dc:source>
        <dc:title>Ukraine Trident</dc:title>
      </cc:Work>
    </rdf:RDF>
  </metadata>
</svg>