M48
; DRILL file {KiCad 7.0.10} date Tue 30 Jan 2024 03:10:27 PM EET
; FORMAT={-:-/ absolute / inch / decimal}
; #@! TF.CreationDate,2024-01-30T15:10:27+02:00
; #@! TF.GenerationSoftware,Kicad,Pcbnew,7.0.10
; #@! TF.FileFunction,Plated,1,2,PTH
FMAT,2
INCH
; #@! TA.AperFunction,Plated,PTH,ViaDrill
T1C0.0157
; #@! TA.AperFunction,Plated,PTH,ComponentDrill
T2C0.0276
; #@! TA.AperFunction,Plated,PTH,ComponentDrill
T3C0.0315
; #@! TA.AperFunction,Plated,PTH,ComponentDrill
T4C0.0354
; #@! TA.AperFunction,Plated,PTH,ComponentDrill
T5C0.0394
; #@! TA.AperFunction,Plated,PTH,ComponentDrill
T6C0.0433
; #@! TA.AperFunction,Plated,PTH,ComponentDrill
T7C0.0512
; #@! TA.AperFunction,Plated,PTH,ComponentDrill
T8C0.0591
; #@! TA.AperFunction,Plated,PTH,ComponentDrill
T9C0.0787
%
G90
G05
T1
X3.33Y-3.6735
X4.19Y-3.3146
T2
X3.25Y-3.1
X3.25Y-3.4
T3
X2.45Y-1.95
X2.45Y-2.0484
X2.65Y-1.95
X2.65Y-2.0484
X3.25Y-3.55
X3.25Y-3.6484
T4
X3.7327Y-1.9
X3.8114Y-1.9
X3.8902Y-1.9
T5
X3.3945Y-2.35
X3.3945Y-2.45
X3.3945Y-2.8012
X3.3945Y-2.9012
X3.45Y-2.1
X3.55Y-2.1
X3.6Y-2.6
X3.6Y-2.7
X3.65Y-2.1
X3.75Y-2.1
X3.85Y-2.1
X3.95Y-2.1
X4.05Y-2.1
X4.15Y-2.1
X4.3Y-2.35
X4.3Y-2.9012
X4.55Y-2.25
X4.65Y-2.25
X4.75Y-2.25
X4.85Y-2.25
X5.1Y-2.3392
X5.1696Y-2.2696
X5.2392Y-2.2
T6
X2.7441Y-3.8
X2.7441Y-3.9772
X3.0Y-3.8
X3.0Y-3.9772
X4.6Y-3.8
X4.6Y-3.9772
X4.8559Y-3.8
X4.8559Y-3.9772
T7
X1.7Y-2.85
X1.8392Y-2.7108
X2.048Y-3.198
X2.1Y-2.65
X2.1Y-3.45
X2.1872Y-3.0588
X2.2392Y-2.7892
X2.2392Y-3.5892
X2.448Y-2.302
X2.448Y-3.102
X2.5Y-2.85
X2.5872Y-2.4412
X2.5872Y-3.2412
X2.6392Y-2.7108
X2.848Y-3.198
X2.9872Y-3.0588
X4.6043Y-3.0516
X4.6043Y-3.2484
X5.0965Y-3.0516
X5.0965Y-3.2484
X5.3043Y-3.0516
X5.3043Y-3.2484
X5.7965Y-3.0516
X5.7965Y-3.2484
T8
X3.65Y-1.9
X3.9728Y-1.9
T9
X3.2882Y-2.1394
X3.2882Y-3.8323
X4.3118Y-2.1394
X4.3118Y-3.8323
T6
G00X5.235Y-2.6023
M15
G01X5.2545Y-2.6218
M16
G05
G00X5.5023Y-2.335
M15
G01X5.5218Y-2.3545
M16
G05
M30
