<?xml version="1.0" encoding="UTF-8" standalone="no"?>
<!-- Created with Inkscape (http://www.inkscape.org/) -->

<svg
   version="1.1"
   width="168.05901mm"
   height="214.37399mm"
   viewBox="0 0 168.059 214.374"
   id="svg2"
   xml:space="preserve"
   style="fill-rule:evenodd"
   sodipodi:docname="shevchenko_young_inv.svg"
   inkscape:version="1.3.2 (091e20ef0f, 2023-11-25, custom)"
   xmlns:inkscape="http://www.inkscape.org/namespaces/inkscape"
   xmlns:sodipodi="http://sodipodi.sourceforge.net/DTD/sodipodi-0.dtd"
   xmlns="http://www.w3.org/2000/svg"
   xmlns:svg="http://www.w3.org/2000/svg"
   xmlns:rdf="http://www.w3.org/1999/02/22-rdf-syntax-ns#"
   xmlns:cc="http://creativecommons.org/ns#"
   xmlns:dc="http://purl.org/dc/elements/1.1/"><sodipodi:namedview
   id="namedview1"
   pagecolor="#000000"
   bordercolor="#000000"
   borderopacity="0.25"
   inkscape:showpageshadow="2"
   inkscape:pageopacity="0.0"
   inkscape:pagecheckerboard="0"
   inkscape:deskcolor="#d1d1d1"
   inkscape:document-units="mm"
   inkscape:export-bgcolor="#000000ff"
   inkscape:zoom="0.48617085"
   inkscape:cx="475.14161"
   inkscape:cy="484.39762"
   inkscape:window-width="1598"
   inkscape:window-height="941"
   inkscape:window-x="20"
   inkscape:window-y="20"
   inkscape:window-maximized="0"
   inkscape:current-layer="Слой_x0020_1" /><metadata
   id="metadata14"><rdf:RDF><cc:Work
       rdf:about=""><dc:format>image/svg+xml</dc:format><dc:type
         rdf:resource="http://purl.org/dc/dcmitype/StillImage" /></cc:Work></rdf:RDF></metadata>
 <defs
   id="defs4">
  <style
   type="text/css"
   id="style6" />
 </defs>
 <g
   id="Слой_x0020_1"
   inkscape:label="Слой 1">
  <metadata
   id="CorelCorpID_0Corel-Layer" />
  <path
   d="m 0,168.203 c 26.5568,-40.6699 74.2653,19.1346 137.033,46.1701 -6.0565,-13.1092 -11.5453,-19.3762 -14.9616,-24.8768 -8.4704,-13.6375 0.1143,-29.6437 6.913,-42.0734 6.8054,-12.4421 14.3751,-25.0763 14.3278,-40.1643 l 3.6936,6.6484 c 4.5553,-25.7708 26.3426,-15.642 13.6663,-53.9266 3.1612,-16.2673 -4.1861,-13.7893 -6.2791,-20.6842 6.2857,1.4312 11.0718,-0.512 13.6663,-7.3872 -21.9633,10.2859 -9.4346,-11.3824 -35.0892,-21.0535 10.886,-0.8727 13.9581,2.7824 17.7303,5.1943 C 148.7594,8.459 142.6635,5.659 125.9522,9.0087 120.2056,2.772 114.8692,-4.6956 98.2502,3.8376 77.6083,-9.125 49.1709,16.2737 48.0172,27.1073 35.4608,25.1394 33.9819,37.121 28.8104,41.5124 33.0668,57.3707 28.2086,67.2395 19.207,74.3855 l 7.0179,0.3693 c -4.6064,8.8531 -8.8022,10.4933 -9.2992,18.7221 -0.2894,4.792 1.0457,9.5086 4.8669,14.151 1.7237,-14.6348 12.9067,-3.3143 5.171,0.7387 -6.1729,13.4374 52.4896,39.3184 75.3495,69.4398 C 87.1002,164.286 73.6693,154.3426 62.3187,146.7552 28.2667,123.9931 17.8604,118.5366 24.3781,109.1054 c -5.9627,3.7764 -6.4552,9.1936 -1.4775,16.2518 -2.0874,6.0502 -1.3487,12.206 2.2162,18.468 C 10.91,151.0931 1.3308,159.0414 3e-4,168.203 Z"
   id="path10"
   style="fill:none;fill-opacity:1;stroke:#ffffff;stroke-opacity:1"
   sodipodi:nodetypes="ccccccccccccccccccccccccccc" />
 <path
   style="fill:none;fill-opacity:0;stroke:#ffffff;stroke-width:1;stroke-dasharray:none"
   d="M 50.40701,28.992163 C 57.274693,15.333168 78.1217,-6.1398122 99.792645,5.8538218 109.1851,1.2928447 118.30569,-0.0823324 126.35806,11.060599 c 2.36374,-0.133269 5.01568,-0.981431 6.43977,1.216119 13.86002,4.60589 16.90818,14.391513 21.89016,23.194262 l -4.31195,1.530855 c 13.86078,13.778851 10.7966,17.211704 9.73777,23.023542 10.51349,28.480653 -5.42211,33.842851 -12.37502,47.056583 l -5.11116,-4.50542 c -1.59477,29.96153 -12.13215,32.48797 -23.43455,61.25234 -4.71995,12.01216 -5.2814,19.88267 14.24592,46.83013 C 81.191301,185.12975 37.661558,141.11782 12.968309,154.49623 l 15.677606,-10.22414 c -4.969412,-6.5443 -6.306456,-13.09514 -2.252626,-19.65567 L 106.80997,181.3802 C 88.477018,153.72351 20.241045,112.76708 29.845811,109.38512 35.512254,107.42462 27.3979,89.909232 20.980963,102.83132 18.878458,97.004465 16.089179,91.71238 29.883591,73.507102 L 24.135369,73.078598 C 34.117295,62.123557 33.521473,52.021872 31.970365,41.997254 35.505263,34.781517 39.457158,28.025912 50.40701,28.992163 Z"
   id="path2"
   sodipodi:nodetypes="cccccccccsccccccccccc" /></g><g
   inkscape:groupmode="layer"
   id="layer1"
   inkscape:label="Слой 2"><path
     d="m 63.760657,120.93825 c 18.667699,1.1253 -1.0257,-19.28909 0,-30.472191 -11.6964,-8.0138 9.058199,-12.334 9.233999,-22.8542 -12.305499,9.7781 -15.005399,7.1772 -6.548599,-1.373 3.392999,-3.430701 15.151999,-10.582001 12.709299,-16.886301 -1.1936,-4.1934 -9.2361,-5.0198 -7.5458,-11.7513 5.714,2.0804 12.2163,-1.1608 19.160599,-7.3872 0.0448,14.8855 23.853195,3.2387 32.318995,22.1617 -0.3079,-4.3862 2.1529,-7.042 -0.9234,-13.1585 5.0796,4.4265 21.349,-7.9893 20.084,22.6233 0.1562,12.817101 3.9889,10.586301 2.0776,13.620201 -1.8115,4.7325 -11.006,-3.9165 -21.6999,14.5436 1.3746,5.5614 2.2843,11.653101 4.0562,17.058201 1.1967,3.65069 3.679,5.05429 3.2391,10.14929 -0.2415,2.7975 -2.8875,3.2047 -5.198,1.9971 -2.3578,-1.2322 -1.9307,-1.5698 -4.9835,-1.5788 -3.5122,-0.0105 -7.0279,0.4593 -9.3489,-0.6164 0.7702,3.6302 4.6783,4.4077 9.4649,4.3862 2.0149,-0.6907 1.0772,3.5396 1.6159,5.3096 1.2678,1.3015 2.2585,-2.845 3.8033,3.9048 0.9656,2.9458 -0.6772,3.8636 -2.4241,2.9085 -0.8877,-0.4852 -2.3532,-0.7127 -3.9185,-2.1963 -3.7705,0.3847 -6.2721,3.9994 -11.3117,1.1542 -5.1927,-1.4221 -5.5404,2.4624 -8.3106,3.6936 6.1177,0.9415 11.2508,-0.3049 15.1869,-0.3225 4.5264,-0.0203 7.1943,1.8386 6.9055,3.0218 -0.4646,1.9047 -1.8881,2.1748 -8.4722,2.3794 -0.2313,2.3083 -1.2315,4.1551 -3.0011,5.5404 7.8265,-0.5035 10.5575,9.9578 5.0787,12.0042 -6.7716,3.4121 -14.4664,0.7774 -21.699895,-3.001 -10.614399,-4.5241 -20.765499,-8.8539 -27.475198,-15.4032 -9.1946,-8.9749 -12.1436,-18.4356 -2.0736,-19.4552 z M 84.992756,79.153059 c 5.524299,-3.4682 5.907199,-8.1236 22.011594,-8.3786 -0.7561,7.7234 9.562,3.2189 14.343,4.8283 1.5621,0.0773 -2.6437,4.4226 4.6863,3.6923 1.392,0.1414 0.0421,4.0633 -2.9655,7.2349 -3.6575,3.8566 -8.0662,6.0311 -9.5856,6.8835 -2.8228,1.3322 -2.7026,5.3679 -6.5825,5.9608 -3.201,0.489198 -5.9323,-0.221 -5.8601,-2.754 2.5318,0.3242 4.2516,0.1322 5.0489,-0.688 2.8277,-2.909 -0.0346,-2.8713 -1.3397,-5.6167 -0.3299,-0.6943 -0.3586,-1.3357 -0.8584,-1.9424 -0.6971,-0.8468 -1.1245,-0.6874 -1.3486,-0.252 -0.2656,0.5162 0.2864,1.1767 -0.1159,1.2951 1.781,6.0713 -7.987395,9.2232 -9.794695,2.8066 -4.0771,0.4624 -2.9893,-4.4103 -0.6803,-4.4072 0.1589,2.2535 2.6131,1.1342 4.8231,0.23 1.4412,-0.5897 2.916895,-1.8317 4.407595,-1.7922 0.4773,0.1334 1.2226,0.1356 1.2704,-0.2895 0.0478,-0.4252 -0.6016,-1.2782 -1.25,-1.3736 -0.7369,-0.1085 -2.065895,0.2184 -2.791595,0.3952 -2.6521,0.6467 -6.273,2.2176 -5.4654,-0.4362 -0.2602,-0.703 1.92,-6.5359 -7.952599,-5.3963 z"
     style="fill:#ffffff;fill-opacity:1;stroke:#ffffff;stroke-opacity:1"
     id="path1" /></g>
</svg>
