<?xml version="1.0" encoding="UTF-8" standalone="no"?>
<!-- Created with Inkscape (http://www.inkscape.org/) -->

<svg
   version="1.1"
   width="168.05901mm"
   height="214.37399mm"
   viewBox="0 0 168.059 214.374"
   id="svg2"
   xml:space="preserve"
   style="fill-rule:evenodd"
   sodipodi:docname="shevchenko_young_inv_2.svg"
   inkscape:version="1.3.2 (091e20ef0f, 2023-11-25, custom)"
   xmlns:inkscape="http://www.inkscape.org/namespaces/inkscape"
   xmlns:sodipodi="http://sodipodi.sourceforge.net/DTD/sodipodi-0.dtd"
   xmlns="http://www.w3.org/2000/svg"
   xmlns:svg="http://www.w3.org/2000/svg"
   xmlns:rdf="http://www.w3.org/1999/02/22-rdf-syntax-ns#"
   xmlns:cc="http://creativecommons.org/ns#"
   xmlns:dc="http://purl.org/dc/elements/1.1/"><sodipodi:namedview
   id="namedview1"
   pagecolor="#000000"
   bordercolor="#000000"
   borderopacity="0.25"
   inkscape:showpageshadow="2"
   inkscape:pageopacity="0.0"
   inkscape:pagecheckerboard="0"
   inkscape:deskcolor="#d1d1d1"
   inkscape:document-units="mm"
   inkscape:export-bgcolor="#000000ff"
   inkscape:zoom="0.74347062"
   inkscape:cx="360.47154"
   inkscape:cy="328.86303"
   inkscape:window-width="1598"
   inkscape:window-height="941"
   inkscape:window-x="20"
   inkscape:window-y="20"
   inkscape:window-maximized="0"
   inkscape:current-layer="Слой_x0020_1" /><metadata
   id="metadata14"><rdf:RDF><cc:Work
       rdf:about=""><dc:format>image/svg+xml</dc:format><dc:type
         rdf:resource="http://purl.org/dc/dcmitype/StillImage" /></cc:Work></rdf:RDF></metadata>
 <defs
   id="defs4">
  <style
   type="text/css"
   id="style6" />
 </defs>
 <g
   id="Слой_x0020_1"
   inkscape:label="Слой 1">
  <metadata
   id="CorelCorpID_0Corel-Layer" />
  <path
   id="path10"
   style="display:inline;fill:#ffffff;fill-opacity:0.99222052;stroke:#ffffff;stroke-opacity:1"
   d="M 110.88212 -0.00051676432 C 107.53548 0.066821669 103.44377 1.1708695 98.250334 3.8374919 C 77.608454 -9.1250952 49.170923 16.2738 48.017224 27.107389 C 35.460837 25.139491 33.982139 37.120799 28.810645 41.512195 C 33.06704 57.370479 28.208687 67.239648 19.207096 74.38564 L 26.224756 74.75461 C 21.61836 83.607701 17.422581 85.24819 16.925582 93.476982 C 16.636182 98.268977 17.971272 102.98566 21.792468 107.62806 C 23.516167 92.99327 34.699421 104.31352 26.963729 108.36651 C 20.790835 121.8039 79.453258 147.68483 102.31313 177.8062 C 87.10025 164.28581 73.669265 154.34278 62.318677 146.75538 C 28.266711 123.99331 17.860663 118.53668 24.378357 109.10549 C 18.415663 112.88188 17.922716 118.29901 22.900411 125.35721 C 20.813013 131.4074 21.551917 137.56334 25.116813 143.82533 C 10.910545 151.09296 1.3315678 159.04097 0.00051676432 168.20214 C 26.557419 127.53426 74.265856 187.33771 137.03298 214.37296 C 130.97649 201.26377 125.48792 194.99704 122.07162 189.49644 C 113.60123 175.85896 122.18568 159.85273 128.98437 147.42304 C 135.78977 134.98096 143.35948 122.34655 143.31218 107.25857 L 147.00601 113.90674 C 151.56131 88.135968 173.34813 98.26488 160.67185 59.980318 C 163.83304 43.713034 156.48616 46.191203 154.39316 39.296309 C 160.67885 40.727508 165.46501 38.784357 168.05951 31.909163 C 146.09623 42.195053 158.62475 20.526758 132.97018 10.855668 C 143.85617 9.982969 146.92817 13.637769 150.70036 16.049666 C 148.75936 8.4588739 142.66329 5.6590558 125.952 9.0087524 C 122.00122 4.7210255 118.24472 -0.14866132 110.88212 -0.00051676432 z M 0.00051676432 168.20214 C 0.00029921673 168.20247 0.00021754475 168.20284 0 168.20317 L 0.00051676432 168.20317 C 0.00056521879 168.20284 0.00046828797 168.20247 0.00051676432 168.20214 z M 85.827319 2.3554118 C 90.351276 2.2082657 95.052361 3.2303014 99.792875 5.8539062 C 109.18532 1.2929337 118.30582 -0.082096689 126.35818 11.060824 C 128.72192 10.927555 131.37349 10.079222 132.79758 12.27677 C 146.65759 16.882655 149.70626 26.66848 154.68823 35.47122 L 150.37583 37.001876 C 164.2366 50.780713 161.17257 54.213445 160.11374 60.025277 C 170.62722 88.505901 154.69169 93.868117 147.73879 107.08184 L 142.62747 102.57668 C 141.0327 132.53818 130.49563 135.06442 119.19324 163.82876 C 114.4733 175.84091 113.91158 183.71154 133.43888 210.65898 C 81.191237 185.12974 37.661425 141.1176 12.968201 154.496 L 28.645797 144.27233 C 23.67639 137.72804 22.339395 131.17669 26.393221 124.61617 L 106.81002 181.38014 C 88.477084 153.72348 20.240967 112.76701 29.845723 109.38505 C 35.512161 107.42456 27.398079 89.909374 20.981148 102.83145 C 18.878645 97.0046 16.089049 91.712401 29.883447 73.507141 L 24.135478 73.078743 C 34.117394 62.123713 33.521248 52.022044 31.970142 41.997437 C 35.505036 34.781707 39.457418 28.025779 50.407259 28.992029 C 55.772631 18.32095 69.670331 2.8809335 85.827319 2.3554118 z " />
 </g><g
   inkscape:groupmode="layer"
   id="layer1"
   inkscape:label="Слой 2"><path
     d="m 63.760657,120.93825 c 18.667699,1.1253 -1.0257,-19.28909 0,-30.472191 -11.6964,-8.0138 9.058199,-12.334 9.233999,-22.8542 -12.305499,9.7781 -15.005399,7.1772 -6.548599,-1.373 3.392999,-3.430701 15.151999,-10.582001 12.709299,-16.886301 -1.1936,-4.1934 -9.2361,-5.0198 -7.5458,-11.7513 5.714,2.0804 12.2163,-1.1608 19.160599,-7.3872 0.0448,14.8855 23.853195,3.2387 32.318995,22.1617 -0.3079,-4.3862 2.1529,-7.042 -0.9234,-13.1585 5.0796,4.4265 21.349,-7.9893 20.084,22.6233 0.1562,12.817101 3.9889,10.586301 2.0776,13.620201 -1.8115,4.7325 -11.006,-3.9165 -21.6999,14.5436 1.3746,5.5614 2.2843,11.653101 4.0562,17.058201 1.1967,3.65069 3.679,5.05429 3.2391,10.14929 -0.2415,2.7975 -2.8875,3.2047 -5.198,1.9971 -2.3578,-1.2322 -1.9307,-1.5698 -4.9835,-1.5788 -3.5122,-0.0105 -7.0279,0.4593 -9.3489,-0.6164 0.7702,3.6302 4.6783,4.4077 9.4649,4.3862 2.0149,-0.6907 1.0772,3.5396 1.6159,5.3096 1.2678,1.3015 2.2585,-2.845 3.8033,3.9048 0.9656,2.9458 -0.6772,3.8636 -2.4241,2.9085 -0.8877,-0.4852 -2.3532,-0.7127 -3.9185,-2.1963 -3.7705,0.3847 -6.2721,3.9994 -11.3117,1.1542 -5.1927,-1.4221 -5.5404,2.4624 -8.3106,3.6936 6.1177,0.9415 11.2508,-0.3049 15.1869,-0.3225 4.5264,-0.0203 7.1943,1.8386 6.9055,3.0218 -0.4646,1.9047 -1.8881,2.1748 -8.4722,2.3794 -0.2313,2.3083 -1.2315,4.1551 -3.0011,5.5404 7.8265,-0.5035 10.5575,9.9578 5.0787,12.0042 -6.7716,3.4121 -14.4664,0.7774 -21.699895,-3.001 -10.614399,-4.5241 -20.765499,-8.8539 -27.475198,-15.4032 -9.1946,-8.9749 -12.1436,-18.4356 -2.0736,-19.4552 z M 84.992756,79.153059 c 5.524299,-3.4682 5.907199,-8.1236 22.011594,-8.3786 -0.7561,7.7234 9.562,3.2189 14.343,4.8283 1.5621,0.0773 -2.6437,4.4226 4.6863,3.6923 1.392,0.1414 0.0421,4.0633 -2.9655,7.2349 -3.6575,3.8566 -8.0662,6.0311 -9.5856,6.8835 -2.8228,1.3322 -2.7026,5.3679 -6.5825,5.9608 -3.201,0.489198 -5.9323,-0.221 -5.8601,-2.754 2.5318,0.3242 4.2516,0.1322 5.0489,-0.688 2.8277,-2.909 -0.0346,-2.8713 -1.3397,-5.6167 -0.3299,-0.6943 -0.3586,-1.3357 -0.8584,-1.9424 -0.6971,-0.8468 -1.1245,-0.6874 -1.3486,-0.252 -0.2656,0.5162 0.2864,1.1767 -0.1159,1.2951 1.781,6.0713 -7.987395,9.2232 -9.794695,2.8066 -4.0771,0.4624 -2.9893,-4.4103 -0.6803,-4.4072 0.1589,2.2535 2.6131,1.1342 4.8231,0.23 1.4412,-0.5897 2.916895,-1.8317 4.407595,-1.7922 0.4773,0.1334 1.2226,0.1356 1.2704,-0.2895 0.0478,-0.4252 -0.6016,-1.2782 -1.25,-1.3736 -0.7369,-0.1085 -2.065895,0.2184 -2.791595,0.3952 -2.6521,0.6467 -6.273,2.2176 -5.4654,-0.4362 -0.2602,-0.703 1.92,-6.5359 -7.952599,-5.3963 z"
     style="fill:#ffffff;fill-opacity:1;stroke:#ffffff;stroke-opacity:1"
     id="path1" /></g>
</svg>
