<?xml version="1.0" encoding="UTF-8" standalone="no"?>
<!-- Created with Inkscape (http://www.inkscape.org/) -->

<svg
   width="27.884623mm"
   height="30.52685mm"
   viewBox="0 0 98.803784 108.166"
   id="svg2"
   version="1.1"
   sodipodi:docname="Stepan_Bandera_sign_45.svg"
   inkscape:version="1.3.2 (091e20ef0f, 2023-11-25, custom)"
   xmlns:inkscape="http://www.inkscape.org/namespaces/inkscape"
   xmlns:sodipodi="http://sodipodi.sourceforge.net/DTD/sodipodi-0.dtd"
   xmlns="http://www.w3.org/2000/svg"
   xmlns:svg="http://www.w3.org/2000/svg"
   xmlns:rdf="http://www.w3.org/1999/02/22-rdf-syntax-ns#"
   xmlns:cc="http://creativecommons.org/ns#"
   xmlns:dc="http://purl.org/dc/elements/1.1/">
  <sodipodi:namedview
     id="namedview1"
     pagecolor="#ffffff"
     bordercolor="#000000"
     borderopacity="0.25"
     inkscape:showpageshadow="2"
     inkscape:pageopacity="0.0"
     inkscape:pagecheckerboard="0"
     inkscape:deskcolor="#d1d1d1"
     inkscape:document-units="mm"
     inkscape:zoom="4.6059376"
     inkscape:cx="-18.345885"
     inkscape:cy="100.19675"
     inkscape:window-width="1598"
     inkscape:window-height="941"
     inkscape:window-x="20"
     inkscape:window-y="20"
     inkscape:window-maximized="0"
     inkscape:current-layer="layer2" />
  <defs
     id="defs4" />
  <metadata
     id="metadata7">
    <rdf:RDF>
      <cc:Work
         rdf:about="">
        <dc:format>image/svg+xml</dc:format>
        <dc:type
           rdf:resource="http://purl.org/dc/dcmitype/StillImage" />
        <dc:title />
      </cc:Work>
    </rdf:RDF>
  </metadata>
  <g
     id="layer2"
     style="display:inline;opacity:1"
     transform="rotate(45,909.77744,48.47624)">
    <path
       id="path1"
       style="color:#000000;font-style:normal;font-variant:normal;font-weight:normal;font-stretch:normal;font-size:medium;line-height:normal;font-family:sans-serif;text-indent:0;text-align:start;text-decoration:none;text-decoration-line:none;text-decoration-style:solid;text-decoration-color:#000000;letter-spacing:normal;word-spacing:normal;text-transform:none;writing-mode:lr-tb;direction:ltr;baseline-shift:baseline;text-anchor:start;white-space:normal;clip-rule:nonzero;display:inline;overflow:visible;visibility:visible;opacity:1;isolation:auto;mix-blend-mode:normal;color-interpolation:sRGB;color-interpolation-filters:linearRGB;solid-color:#000000;solid-opacity:1;fill:#000000;fill-opacity:1;fill-rule:evenodd;stroke:none;stroke-width:0.55;stroke-linecap:butt;stroke-linejoin:miter;stroke-miterlimit:4;stroke-dasharray:none;stroke-dashoffset:0;stroke-opacity:1;color-rendering:auto;image-rendering:auto;shape-rendering:auto;text-rendering:auto;enable-background:accumulate"
       d="M 232.60279 657.1029 C 232.48484 657.2006 232.35859 657.33219 232.38139 657.54182 C 232.39699 657.68552 232.47633 657.80273 232.56783 657.88623 C 232.65933 657.96973 232.76928 658.03176 232.8954 658.0895 C 233.14765 658.20497 233.47623 658.29918 233.88589 658.386 C 234.70522 658.55965 235.84089 658.69868 237.20175 658.81456 C 239.92343 659.04631 243.53673 659.09489 247.19205 659.0761 C 252.17598 659.0505 257.94208 658.80931 262.17879 659.91381 C 262.79737 660.07507 263.93874 660.36727 263.9293 660.48868 C 263.9203 660.61009 263.49478 660.93961 263.27804 661.16583 C 260.95199 663.59371 258.69095 666.07071 256.71365 668.46046 C 255.38048 670.07173 254.26966 671.46257 253.57388 672.57388 C 253.22598 673.12954 252.97892 673.61341 252.86565 674.04343 C 252.75237 674.47346 252.78109 674.8961 253.05339 675.1841 C 253.22175 675.36219 253.46205 675.41552 253.70982 675.41327 C 253.95758 675.41127 254.23446 675.35346 254.54753 675.25661 C 255.17367 675.06292 255.94527 674.7052 256.81075 674.22858 C 258.5417 673.27534 260.58452 671.75949 262.48824 670.24463 C 263.89479 669.12539 265.23985 668.12475 266.33106 667.17866 C 267.42227 666.23255 268.07282 665.56893 268.43503 664.83386 C 268.84855 663.99465 268.77311 663.19706 268.3923 662.54604 C 268.09905 662.04464 267.85121 661.52511 267.31378 661.16713 C 267.23768 661.11643 267.19753 660.98501 267.22314 660.88487 C 267.24874 660.78472 267.43921 660.68768 267.60121 660.57931 C 267.924 660.36339 268.2473 660.24853 268.87007 659.95006 C 270.29768 659.26586 271.60182 658.95167 272.832 658.82622 C 273.4471 658.76352 274.10299 658.77331 274.54367 658.94015 C 274.98434 659.10708 275.24942 659.48847 275.42928 659.92934 C 275.60914 660.37021 275.84069 661.48256 275.62996 662.24047 C 275.41923 662.99839 275.08815 663.70316 274.43232 664.38329 C 272.83481 666.03712 271.48226 667.26183 270.34738 668.08757 C 269.2125 668.91331 268.70512 669.32467 268.25247 669.59984 C 267.32578 670.16318 266.58209 670.67488 266.09412 671.12894 C 265.85014 671.35597 265.66765 671.56448 265.55939 671.78797 C 265.45112 672.01146 265.4335 672.3003 265.58787 672.50785 C 265.70263 672.66216 265.90722 672.72773 266.07858 672.7189 C 266.24994 672.7099 266.41452 672.6525 266.5926 672.56741 C 266.94875 672.39735 267.35891 672.10439 267.81225 671.72582 C 268.59591 671.0714 269.12503 670.28433 270.35903 669.3396 C 271.59303 668.39487 273.58668 667.33069 275.52768 666.39015 C 277.41958 665.513 279.26356 664.49901 281.2453 663.84985 C 280.52068 664.6587 279.94406 665.34968 279.5181 665.93958 C 279.09214 666.52947 278.88249 667.10114 278.85001 667.44667 C 278.81751 667.79219 278.95606 668.29095 279.27339 668.48377 C 279.59072 668.67659 280.61223 668.51436 281.0485 668.25977 C 282.66126 667.31875 285.14413 665.69234 285.9064 665.33622 C 286.66867 664.98011 285.13488 667.22533 285.11142 667.86358 C 285.05553 669.38445 285.71451 669.27394 286.75446 669.27097 C 287.24559 669.26997 287.8323 668.9938 288.51015 668.73754 C 289.86585 668.22501 291.5445 667.43824 293.16737 666.58178 C 293.83739 666.22818 294.55546 666.1313 294.81688 666.12861 C 295.0783 666.12561 295.45714 666.24612 295.86433 666.34484 C 297.30798 666.69481 299.14102 666.37998 300.68987 665.89815 C 300.57372 667.07352 301.31605 667.32263 302.19696 667.34309 C 304.99461 667.40799 307.32088 667.07485 309.19768 666.93006 C 308.77893 667.4523 308.42634 667.91882 308.01428 668.47341 C 307.29178 669.44582 306.70562 670.29428 306.0605 671.28431 C 303.02403 671.92319 301.57234 672.31505 298.9316 672.77328 C 296.29086 673.23151 295.03078 673.1896 292.9861 673.51905 C 289.44267 674.08997 286.03291 674.73113 283.4904 675.24107 C 282.0527 675.52799 280.67646 675.81784 279.29022 676.13963 C 278.7486 676.30999 278.28712 676.6362 277.88542 676.92554 C 277.83372 676.96284 277.79734 677.05145 277.80514 677.17155 C 277.81314 677.29165 277.90229 677.41697 277.98382 677.44085 C 278.56625 677.61131 279.20177 677.42337 279.63851 677.36317 C 280.786 677.16681 290.68926 675.09209 300.71447 673.10085 C 301.54922 672.93505 302.54955 672.7721 303.33116 672.77328 C 304.67648 672.77528 304.51382 673.18621 304.1106 674.12759 C 303.30878 675.99955 302.59469 677.35539 302.59445 678.33941 C 302.59423 679.28105 303.07904 680.08139 303.80375 680.67514 C 304.52846 681.26888 305.49445 681.67625 306.53179 681.88832 C 308.60648 682.31245 310.9911 681.97402 312.25329 680.50941 C 313.07721 679.55339 313.92291 678.13083 313.58818 676.69119 C 312.71509 672.93611 308.43372 672.56285 307.27368 671.73359 C 306.20894 670.97246 317.44576 668.14913 321.34245 666.2309 C 322.60845 666.39514 324.68407 666.08208 326.78817 665.66639 C 329.18852 665.19215 333.55728 663.20789 334.10999 663.16622 C 334.66271 663.12452 333.72731 664.07643 332.94212 664.85458 C 332.74383 665.0511 332.67963 665.10163 332.48896 665.28961 C 331.549 665.64725 330.18352 666.19458 329.59649 666.38497 C 327.84624 666.95262 325.18839 668.85956 322.6864 670.92049 C 320.18441 672.9814 317.88257 675.17733 316.93641 676.37009 C 316.34224 677.11912 315.42673 678.0117 314.87258 678.93111 C 314.5955 679.39081 314.33687 680.1089 314.35079 680.59746 C 314.36469 681.08603 314.50066 681.69846 315.00335 682.08124 C 315.26228 682.27842 315.77446 682.35423 316.19063 682.25603 C 316.60681 682.15783 317.11067 681.85097 317.36368 681.60348 C 317.87826 681.10013 318.18841 680.6177 318.82675 679.90477 C 320.10339 678.4789 321.44249 676.95184 322.52326 675.90269 C 325.91794 672.60738 328.34334 669.97644 333.01075 666.16098 C 334.37724 665.04391 335.91179 664.58013 337.80262 663.8628 C 339.31806 663.28787 340.75784 662.76513 341.86555 662.42045 C 342.4194 662.2481 342.89556 662.13939 343.23928 662.05403 C 343.38994 662.01663 343.71518 661.98032 343.78049 662.00742 C 343.98568 662.09252 344.01794 662.22004 344.02649 662.36736 C 344.03549 662.51469 343.97129 662.73254 343.82062 662.98496 C 343.58804 663.37472 343.19734 663.80366 342.45466 664.2085 C 341.71199 664.61334 340.65959 665.00756 339.95061 665.34529 C 339.56382 665.52954 339.24064 665.69989 339.00415 665.8593 C 338.8859 665.939 338.78986 666.01468 338.71024 666.10142 C 338.63064 666.18812 338.54036 666.30129 338.56264 666.47949 L 338.5717 666.5507 L 338.61702 666.60897 C 338.70682 666.72952 338.8416 666.7937 338.96919 666.81613 C 339.09679 666.83853 339.2263 666.82957 339.36279 666.80577 C 339.63577 666.75897 339.94551 666.64592 340.28984 666.48726 C 340.97848 666.16993 341.79509 665.66314 342.53235 665.08893 C 342.67057 664.98128 342.73128 664.85974 342.86251 664.74841 C 342.91011 664.73081 342.94298 664.71272 342.99069 664.69532 C 344.02858 664.31494 344.65692 664.04441 345.48308 663.8369 C 346.53981 663.57147 346.83272 663.89487 346.90731 664.26158 C 346.95421 664.49241 346.91245 664.60698 346.92285 664.83386 C 346.92785 664.9473 346.95647 665.0843 347.06915 665.19251 C 347.18179 665.30073 347.34392 665.32761 347.48218 665.31033 C 347.64802 665.28963 347.92611 665.455 348.22796 665.34658 C 349.33171 665.11022 349.84573 664.96372 350.84594 665.6133 C 351.34375 665.9366 352.17631 665.68512 352.68708 665.68322 C 353.44451 665.68022 354.33085 665.58724 355.62616 665.54856 C 358.21681 665.47116 361.6805 665.26135 365.12834 665.03455 C 368.57619 664.80775 370.30513 664.46502 372.82046 664.32373 C 373.87982 664.26643 375.06432 664.54853 375.33616 664.874 C 375.608 665.19948 375.87825 665.47405 375.19892 665.96418 C 374.51958 666.45432 373.09689 666.53071 373.06517 666.85497 C 373.03347 667.17923 373.56832 667.17613 374.08802 667.13722 C 374.60771 667.09832 374.8458 667.02291 375.92657 666.28787 C 377.00735 665.55261 377.86038 664.75782 378.30503 664.36257 C 378.35063 664.32197 378.43243 664.22689 378.41249 664.08679 C 378.39259 663.94669 378.29576 663.88368 378.24417 663.85632 C 378.14099 663.80162 378.07529 663.7989 377.98134 663.7877 C 376.7038 663.722 375.58952 663.81335 374.49198 663.87445 C 371.9694 664.01614 368.53813 664.25889 365.09209 664.48557 C 361.64605 664.71225 358.1835 664.92263 355.60804 664.99959 C 354.32033 665.03809 353.66104 665.27756 352.98358 665.0216 C 350.8196 664.20399 353.63712 662.51195 354.56188 661.74976 C 355.1057 661.30155 355.29776 660.85397 354.93477 660.4576 C 353.95257 659.38507 351.85587 659.48841 350.56757 659.82706 C 350.01212 659.98086 349.55147 660.20556 349.24434 660.50292 C 349.09078 660.6516 348.97312 660.82195 348.92324 661.02082 C 348.87334 661.21969 348.90397 661.4436 349.01387 661.63194 C 349.39211 662.28036 350.37821 662.67743 350.66079 663.2452 C 351.08557 664.09868 349.29651 664.52599 348.51539 664.74064 C 347.79804 664.93777 347.57689 664.43228 347.57022 664.30819 C 347.55802 664.08107 347.70345 663.84806 347.73466 663.61809 C 347.75026 663.5031 347.75836 663.39096 347.73336 663.2698 C 347.70836 663.14863 347.63436 663.0069 347.5029 662.92799 C 347.3498 662.83609 347.27368 662.8672 347.17014 662.8749 C 347.06662 662.8829 346.94717 662.90128 346.80761 662.92928 C 346.5285 662.98528 346.16906 663.07766 345.7511 663.19859 C 344.85928 663.33225 343.86139 663.85702 344.2945 663.26721 C 344.50649 662.9785 344.59245 662.64981 344.57417 662.33499 C 344.55587 662.02017 344.3704 661.72279 344.06145 661.53742 C 343.92179 661.45362 343.79096 661.44748 343.64324 661.45068 C 343.49552 661.45368 343.3308 661.47632 343.13829 661.51282 C 342.75327 661.58572 342.2672 661.71903 341.70241 661.89478 C 340.57281 662.24628 339.56965 662.55213 338.04992 663.12867 C 335.75813 664.03899 335.03711 663.61634 336.56743 662.06309 C 337.26922 661.35077 338.40059 661.01926 338.9912 660.55341 C 339.3525 660.26843 339.61342 660.01801 339.74475 659.73254 C 339.81045 659.5898 339.84068 659.42059 339.78488 659.25737 C 339.72908 659.09414 339.59609 658.97195 339.44566 658.89743 C 339.35146 658.85083 339.25885 658.84191 339.16858 658.85341 C 339.07828 658.86491 338.9908 658.89728 338.91093 658.93497 C 338.75118 659.01047 338.59115 659.12556 338.40727 659.27549 C 338.03951 659.57533 337.58936 660.01873 337.05555 660.57284 C 336.78032 660.85853 336.31307 661.33965 335.99515 661.67726 C 335.80001 661.77753 335.72097 661.85736 335.51479 661.95822 C 332.8227 663.27513 329.24661 664.61847 326.682 665.12518 C 325.14315 665.42921 325.25894 664.96485 325.19045 664.8248 C 325.12195 664.68478 325.68837 664.24282 326.66129 663.11314 C 327.2555 662.42317 327.69413 661.70045 327.80973 661.01952 C 327.86753 660.67905 327.8393 660.33977 327.68284 660.04587 C 327.52638 659.75197 327.24655 659.52246 326.86974 659.37778 C 325.63793 658.9048 323.83603 659.48947 322.31092 660.38639 C 321.54837 660.83486 320.85968 661.37174 320.35973 661.9388 C 319.85978 662.50585 319.11175 663.78622 319.14525 664.49723 C 319.19404 665.53339 319.71552 665.82241 320.81419 666.12214 C 314.03205 667.97875 309.82551 669.66114 306.82181 671.12635 C 307.37422 670.29684 307.98357 669.78992 308.58656 668.97836 C 309.11952 668.26105 309.53987 667.50529 310.18946 667.23304 C 310.83905 666.96079 312.57086 666.62149 313.09618 666.50927 C 314.03736 666.30822 315.24394 665.43478 315.98218 664.4545 C 316.3513 663.96436 316.60886 663.43998 316.57776 662.91375 C 316.54666 662.3875 316.16552 661.91577 315.47593 661.66949 C 315.02956 661.51007 314.53307 661.68152 313.98956 662.00095 C 313.44605 662.32034 312.83777 662.81489 312.18338 663.43941 C 311.41723 664.17058 310.35879 665.76675 309.58481 666.02244 C 308.81082 666.27813 304.71511 666.71701 302.83786 666.70478 C 301.90626 666.69578 301.45787 666.03684 302.04807 665.5395 C 302.63825 665.04216 302.88451 664.89856 303.36353 664.63835 C 304.25384 664.15472 303.8431 663.26279 302.95698 663.67247 C 302.14946 664.04581 302.03816 664.14625 300.95659 664.80279 C 299.87501 665.45933 297.81182 666.1243 296.46769 665.79845 C 295.81037 665.57428 296.83375 664.44472 297.5009 664.04277 C 298.07027 663.65782 298.53094 663.31193 298.84615 663.01603 C 299.00375 662.86808 299.16752 662.75177 299.21127 662.59394 C 299.39611 661.92705 299.12197 661.72751 298.57813 661.79508 C 298.32951 661.82598 298.06386 661.91866 297.77409 662.05791 C 297.19455 662.33641 296.53415 662.79268 295.97698 663.31123 C 295.4198 663.82977 295.1238 664.42898 294.68999 664.95298 C 294.25617 665.47699 293.63111 665.71859 292.9123 666.09624 C 291.30227 666.94213 289.65841 667.78355 288.31593 668.22223 C 286.49434 668.81746 285.56215 667.76533 286.65088 666.43288 C 287.06124 665.93066 287.50751 665.58835 287.92104 665.08245 C 288.33456 664.57655 288.80251 663.85414 289.23132 663.37597 C 289.66013 662.89781 290.26159 662.73058 290.60764 662.39326 C 291.07642 661.93632 291.44753 661.51273 291.68617 661.12569 C 291.92481 660.73863 292.06601 660.35475 291.89204 660.00573 C 291.55157 659.32272 290.8907 658.95009 290.16613 658.80809 C 289.44156 658.66608 288.63784 658.73686 287.89902 658.9285 C 287.16021 659.12015 286.51293 659.35459 286.03199 659.81929 C 285.55105 660.28399 284.99451 660.77743 284.44592 661.18784 C 283.67356 661.53849 283.19951 662.03954 281.94187 662.73119 C 280.68424 663.42282 276.29628 665.39805 275.97566 665.55374 C 275.65504 665.70942 274.89573 666.06904 274.66796 665.74019 C 274.44018 665.41133 274.80209 664.98482 275.04732 664.73417 C 275.74217 664.02398 276.30214 663.24313 276.54924 662.35441 C 276.79634 661.46569 276.70764 660.47306 276.13362 659.39073 C 275.83038 658.81898 275.36423 658.43249 274.81427 658.22416 C 274.2643 658.01584 273.63641 657.97563 272.96407 658.04419 C 271.61941 658.18131 270.72923 658.43053 269.27144 659.12919 C 268.17719 659.65362 267.42605 659.98311 267.15323 660.05364 C 266.8804 660.12414 266.69369 660.08374 266.82306 659.86331 C 266.95242 659.64288 266.93118 659.76904 267.87958 658.78608 C 268.82798 657.80311 269.66482 657.08582 270.45873 656.15255 C 270.85569 655.68593 271.18445 655.27123 271.41425 654.9329 C 271.52915 654.76374 271.621 654.61331 271.68486 654.47585 C 271.74876 654.33839 271.80332 654.21927 271.7716 654.0447 C 271.7615 653.9892 271.72788 653.91662 271.66932 653.86473 C 271.61072 653.81283 271.53978 653.79035 271.48676 653.78575 C 271.3807 653.77675 271.18352 653.7726 271.12552 653.7974 C 271.00952 653.8468 270.86435 653.92267 270.71897 654.02787 C 270.42822 654.23828 269.61094 654.96071 269.12254 655.39642 C 268.1457 656.26784 267.63461 656.70843 266.12778 658.22027 C 265.63274 658.71694 264.95586 659.49543 264.71262 659.60436 C 264.46939 659.71329 264.0748 659.71488 263.81018 659.63155 C 259.43729 658.25429 253.01094 658.68519 247.20499 658.52713 C 243.5554 658.42773 239.94714 658.49536 237.24836 658.26559 C 235.89896 658.15069 235.52686 658.02222 234.75078 657.85774 C 232.94055 657.52944 234.29903 656.96344 234.82976 656.75332 C 236.18577 656.32425 238.17193 655.81099 240.6186 655.25529 C 245.51194 654.1439 252.25923 652.85851 259.60094 651.69861 C 274.28438 649.37881 291.18174 647.8476 300.5358 648.89677 C 300.5358 648.89677 301.00361 648.96029 301.03945 648.67278 C 301.07525 648.38526 300.59665 648.34909 300.59665 648.34909 C 298.816 648.14938 296.76911 648.05276 294.52168 648.04094 C 293.77253 648.03694 293.00058 648.04188 292.20925 648.05648 C 282.71327 648.23056 270.54257 649.41377 259.51419 651.15611 C 252.16193 652.31768 245.40741 653.60399 240.49689 654.71927 C 238.04162 655.27691 236.04687 655.79009 234.66403 656.22765 C 233.9726 656.44643 233.43781 656.6444 233.05984 656.82712 C 232.87085 656.91852 232.72073 657.0052 232.60279 657.1029 z M 257.8349 668.06944 C 258.62187 667.30259 259.58815 666.50837 259.92075 666.14156 C 260.36421 665.65249 262.05396 664.18493 263.10454 663.41611 C 264.15881 662.49819 265.50643 661.49095 266.29351 661.5685 C 266.78127 661.6166 267.53912 662.2905 267.83168 662.79074 C 268.12425 663.29097 268.28721 663.89076 267.94173 664.59174 C 267.66065 665.16217 267.19779 665.93165 266.1239 666.86274 C 265.05001 667.79383 263.67613 668.87072 262.26683 669.99215 C 260.38571 671.48903 258.2376 672.81369 256.54533 673.74563 C 255.6992 674.2116 254.94917 674.55792 254.38568 674.73223 C 254.10393 674.81933 253.86855 674.86152 253.70594 674.863 C 253.54333 674.864 253.47506 674.82764 253.45346 674.80474 C 253.34579 674.69085 253.30826 674.51789 253.39649 674.18326 C 253.48459 673.84863 253.70745 673.39503 254.03999 672.86391 C 254.70506 671.80166 255.80866 670.41707 257.13833 668.81004 C 257.33078 668.57744 257.57258 668.32506 257.8349 668.06944 z M 281.837 664.31467 C 282.34633 663.74614 282.83861 663.32298 283.49428 662.92928 C 284.14995 662.53558 285.09994 662.18438 285.63839 662.14466 C 286.17683 662.10496 287.07791 662.41666 287.30732 662.75708 C 287.53673 663.0975 287.18589 663.79549 286.37769 664.43767 C 284.61187 665.67112 282.45289 666.73944 280.93585 667.71986 C 280.41768 668.05474 279.91163 667.54036 279.87157 667.31331 C 279.83147 667.08626 280.24674 666.49046 280.5539 666.02503 C 280.86107 665.55961 281.13824 665.09465 281.837 664.31467 z M 286.87488 660.08989 C 287.18865 659.7978 287.64756 659.60823 288.03627 659.45935 C 290.24391 659.0978 291.16968 660.33753 291.00902 660.67383 C 290.84836 661.01012 289.4655 662.45575 288.63962 662.4813 C 287.81374 662.5069 286.68465 661.64686 286.57967 661.33544 C 286.39099 660.77573 286.5611 660.38198 286.87488 660.08989 z M 312.73106 663.74886 C 313.36329 663.14549 313.80302 662.78532 314.26793 662.47353 C 314.6066 662.2464 314.99074 662.14106 315.27654 662.31169 C 316.05872 662.77864 315.56082 663.8405 315.25971 664.2318 C 314.36186 665.39847 313.0841 665.79712 312.58993 665.41779 C 312.09576 665.03846 312.09882 664.35224 312.73106 663.74886 z M 305.30048 673.53847 C 305.5297 673.2792 305.77162 673.06236 305.96728 672.97526 C 307.29051 672.38614 308.71076 672.83139 309.98618 673.32743 C 312.27088 674.21601 312.91168 675.47838 313.0418 676.74816 C 313.17191 678.01794 312.58428 679.28466 311.83897 680.14947 C 310.77987 681.37839 308.57664 681.74498 306.64314 681.34971 C 305.67639 681.15208 304.78387 680.76917 304.15074 680.25046 C 303.51761 679.73173 303.14583 679.096 303.14601 678.33941 C 303.14618 677.62562 303.74527 676.10469 304.71525 674.35158 C 304.85498 674.09903 305.07126 673.79775 305.30048 673.53847 z M 321.14435 661.92326 C 321.54947 661.54606 322.04934 661.17858 322.59059 660.86027 C 323.67308 660.22365 324.79923 659.95005 325.30827 659.89827 C 325.81731 659.84647 326.24252 659.93134 326.50721 660.01221 C 326.79103 660.12119 326.94425 660.2612 327.03158 660.42523 C 327.11888 660.58927 327.14333 660.79354 327.10021 661.04801 C 327.01381 661.55694 326.79914 662.10906 326.24438 662.7532 C 324.82546 664.09854 322.40439 665.37367 321.55738 665.29609 C 320.71036 665.21849 320.21541 664.56453 320.13444 663.67376 C 320.10074 663.3032 320.32584 662.80952 320.77276 662.30262 C 320.88448 662.1759 321.00931 662.049 321.14435 661.92326 z M 318.27259 675.69423 C 319.40923 674.50802 321.17502 672.87807 323.03598 671.34517 C 325.51727 669.30129 328.21278 667.41054 329.7661 666.90676 C 333.88642 665.4599 322.62469 674.73216 322.14131 675.19964 C 320.9947 676.3127 319.66568 678.14584 318.4189 679.53835 C 317.79551 680.2346 317.16424 680.78024 316.67616 681.13348 C 316.21694 681.46583 315.83645 681.46894 315.51477 681.26684 C 314.67928 680.74192 315.01811 679.9094 315.34387 679.21596 C 315.752 678.34716 316.7362 677.50619 317.36627 676.71191 C 317.58587 676.43506 317.89371 676.08964 318.27259 675.69423 z M 349.69232 660.91983 C 349.81494 660.75768 350.22007 660.49334 350.71388 660.35661 C 351.2077 660.21987 351.80241 660.14921 352.42424 660.18441 C 353.04608 660.21961 353.11691 660.21663 353.66721 660.44595 C 354.21752 660.6753 354.28495 661.11592 353.93522 661.39759 C 353.58549 661.67927 353.24234 662.0864 352.287 662.59006 C 351.63283 662.89292 351.39973 662.9351 350.94823 662.54863 C 350.37454 662.06604 349.84306 661.86849 349.64312 661.56461 C 349.44318 661.26074 349.56972 661.08198 349.69232 660.91983 z " />
  </g>
</svg>
