<?xml version="1.0" encoding="UTF-8" standalone="no"?>
<!-- Created with Inkscape (http://www.inkscape.org/) -->

<svg
   width="41.214722mm"
   height="9.6687965mm"
   viewBox="0 0 146.03642 34.259515"
   id="svg2"
   version="1.1"
   xmlns="http://www.w3.org/2000/svg"
   xmlns:svg="http://www.w3.org/2000/svg"
   xmlns:rdf="http://www.w3.org/1999/02/22-rdf-syntax-ns#"
   xmlns:cc="http://creativecommons.org/ns#"
   xmlns:dc="http://purl.org/dc/elements/1.1/">
  <defs
     id="defs4" />
  <metadata
     id="metadata7">
    <rdf:RDF>
      <cc:Work
         rdf:about="">
        <dc:format>image/svg+xml</dc:format>
        <dc:type
           rdf:resource="http://purl.org/dc/dcmitype/StillImage" />
        <dc:title />
      </cc:Work>
    </rdf:RDF>
  </metadata>
  <g
     id="layer2"
     style="display:inline;opacity:1"
     transform="translate(-232.37877,-648.03931)">
    <path
       style="color:#000000;font-style:normal;font-variant:normal;font-weight:normal;font-stretch:normal;font-size:medium;line-height:normal;font-family:sans-serif;text-indent:0;text-align:start;text-decoration:none;text-decoration-line:none;text-decoration-style:solid;text-decoration-color:#000000;letter-spacing:normal;word-spacing:normal;text-transform:none;writing-mode:lr-tb;direction:ltr;baseline-shift:baseline;text-anchor:start;white-space:normal;clip-rule:nonzero;display:inline;overflow:visible;visibility:visible;opacity:1;isolation:auto;mix-blend-mode:normal;color-interpolation:sRGB;color-interpolation-filters:linearRGB;solid-color:#000000;solid-opacity:1;fill:#000000;fill-opacity:1;fill-rule:evenodd;stroke:none;stroke-width:0.55;stroke-linecap:butt;stroke-linejoin:miter;stroke-miterlimit:4;stroke-dasharray:none;stroke-dashoffset:0;stroke-opacity:1;color-rendering:auto;image-rendering:auto;shape-rendering:auto;text-rendering:auto;enable-background:accumulate"
       d="m 294.5221,648.04064 c -0.74915,-0.004 -1.52117,10e-4 -2.3125,0.0156 -9.49599,0.17408 -21.66692,1.35726 -32.69531,3.0996 -7.35227,1.16157 -14.10705,2.44722 -19.01758,3.5625 -2.45527,0.55765 -4.44919,1.07221 -5.83203,1.50977 -0.69143,0.21878 -1.2275,0.41689 -1.60547,0.59961 -0.18899,0.0914 -0.33909,0.17769 -0.45703,0.27539 -0.11795,0.0977 -0.24351,0.22982 -0.22071,0.43945 0.0156,0.1437 0.096,0.26025 0.1875,0.34375 0.0915,0.0835 0.20005,0.14539 0.32617,0.20313 0.25225,0.11547 0.58058,0.21005 0.99024,0.29687 0.81933,0.17365 1.95555,0.31186 3.31641,0.42774 2.72169,0.23175 6.33491,0.28086 9.99023,0.26207 4.98394,-0.0256 10.75067,-0.26704 14.98739,0.83746 0.61858,0.16126 1.76012,0.4533 1.75068,0.57471 -0.009,0.12141 -0.43498,0.45106 -0.65172,0.67728 -2.32605,2.42788 -4.58757,4.90524 -6.56487,7.29499 -1.33317,1.61127 -2.44483,3.00196 -3.14062,4.11328 -0.3479,0.55566 -0.59376,1.03873 -0.70703,1.46875 -0.11328,0.43003 -0.0848,0.85263 0.1875,1.14063 0.16836,0.17809 0.40848,0.23272 0.65625,0.23047 0.24776,-0.002 0.52482,-0.0594 0.83789,-0.15625 0.62614,-0.19369 1.39819,-0.55268 2.26367,-1.0293 1.73095,-0.95324 3.77346,-2.46806 5.67718,-3.98292 1.40655,-1.11924 2.75126,-2.11975 3.84247,-3.06585 1.09121,-0.94611 1.74226,-1.61025 2.10447,-2.34532 0.41352,-0.83921 0.33781,-1.63805 -0.043,-2.28907 -0.29325,-0.5014 -0.54151,-1.01984 -1.07895,-1.37782 -0.0761,-0.0507 -0.11571,-0.18263 -0.0901,-0.28277 0.0256,-0.10015 0.21516,-0.19711 0.37716,-0.30548 0.32279,-0.21592 0.64655,-0.32964 1.26932,-0.62811 1.42762,-0.6842 2.7327,-0.99955 3.96289,-1.125 0.6151,-0.0627 1.27026,-0.0516 1.71094,0.11524 0.44067,0.16693 0.70491,0.5474 0.88477,0.98827 0.17986,0.44087 0.41189,1.55263 0.20116,2.31055 -0.21073,0.75792 -0.54143,1.46245 -1.19726,2.14258 -1.59751,1.65383 -2.9504,2.87909 -4.08528,3.70483 -1.13488,0.82574 -1.64175,1.23679 -2.0944,1.51196 -0.92669,0.56334 -1.67024,1.07524 -2.15821,1.5293 -0.24398,0.22703 -0.42689,0.43667 -0.53515,0.66016 -0.10827,0.22349 -0.12507,0.5112 0.0293,0.71875 0.11476,0.15431 0.31888,0.21976 0.49024,0.21093 0.17136,-0.009 0.33559,-0.0653 0.51367,-0.15039 0.35615,-0.17006 0.76736,-0.46322 1.2207,-0.84179 0.78366,-0.65442 1.31148,-1.44233 2.54548,-2.38707 1.234,-0.94473 3.22837,-2.00833 5.16937,-2.94887 1.89191,-0.87715 3.73505,-1.89186 5.71679,-2.54102 -0.72462,0.80885 -1.30138,1.49992 -1.72734,2.08982 -0.42596,0.58989 -0.63544,1.16199 -0.66792,1.50752 -0.0325,0.34552 0.10723,0.84461 0.42456,1.03743 0.31733,0.19283 1.33912,0.03 1.77539,-0.22459 1.61277,-0.94102 4.09427,-2.56702 4.85654,-2.92314 0.76227,-0.35612 -0.77029,1.88874 -0.79375,2.52699 -0.0559,1.52087 0.60233,1.41083 1.64229,1.40786 0.49113,-10e-4 1.07801,-0.27694 1.75586,-0.5332 1.3557,-0.51253 3.03533,-1.29978 4.6582,-2.15625 0.67002,-0.3536 1.38661,-0.45096 1.64803,-0.45365 0.26142,-0.003 0.64006,0.1186 1.04725,0.21732 1.44365,0.34997 3.27711,0.0355 4.82596,-0.44633 -0.11615,1.17537 0.62637,1.42336 1.50728,1.44382 2.79765,0.0649 5.12399,-0.26872 7.00079,-0.41351 -0.41875,0.52224 -0.77227,0.9895 -1.18433,1.54409 -0.7225,0.97241 -1.30727,1.82135 -1.95239,2.81138 -3.03647,0.63888 -4.48817,1.03005 -7.12891,1.48828 -2.64074,0.45823 -3.90258,0.41665 -5.94726,0.7461 -3.54344,0.57092 -6.95162,1.21271 -9.49414,1.72265 -1.4377,0.28692 -2.81493,0.5767 -4.20117,0.89849 -0.54162,0.17036 -1.00259,0.49583 -1.40429,0.78517 -0.0517,0.0373 -0.0879,0.12599 -0.0801,0.24609 0.008,0.1201 0.0962,0.24565 0.17773,0.26953 0.58243,0.17046 1.21952,-0.018 1.65626,-0.0782 1.14749,-0.19636 11.05095,-2.27048 21.07617,-4.26172 0.83475,-0.1658 1.83362,-0.32931 2.61523,-0.32813 1.34532,0.002 1.18403,0.41332 0.78081,1.3547 -0.80182,1.87197 -1.5169,3.22765 -1.51714,4.21167 -2.2e-4,0.94164 0.48428,1.74219 1.20899,2.33594 0.72471,0.59374 1.69117,1.00082 2.72851,1.21289 2.07469,0.42413 4.46046,0.0857 5.72266,-1.37891 0.82392,-0.95603 1.66871,-2.37872 1.33398,-3.81836 -0.87309,-3.75509 -5.15541,-4.12815 -6.31545,-4.95741 -1.16004,-0.82926 10.73149,-2.23918 10.75491,-2.43321 0.0234,-0.19403 -8.49087,1.25788 -11.20703,1.82617 0.55241,-0.82951 1.16363,-1.33673 1.76662,-2.14829 0.53296,-0.71731 0.95258,-1.47401 1.60217,-1.74626 0.64959,-0.27225 2.38128,-0.61042 2.9066,-0.72264 0.94118,-0.20105 2.14652,-1.07441 2.88476,-2.05469 0.36912,-0.49014 0.62681,-1.01477 0.59571,-1.54101 -0.0311,-0.52625 -0.41002,-0.99786 -1.09961,-1.24414 -0.44637,-0.15942 -0.94477,0.0126 -1.48829,0.33203 -0.54351,0.31939 -1.15029,0.81298 -1.80468,1.4375 -0.76615,0.73117 -1.8254,2.32881 -2.59938,2.5845 -0.77399,0.25569 -4.86973,0.69426 -6.74698,0.68203 -0.9316,-0.009 -1.38001,-0.66969 -0.78981,-1.16703 0.59019,-0.49734 0.83695,-0.64073 1.31597,-0.90094 0.89031,-0.48363 0.48011,-1.37497 -0.40601,-0.96529 -0.80752,0.37334 -0.91954,0.47326 -2.00111,1.1298 -1.08158,0.65654 -3.14492,1.32288 -4.48905,0.99703 -0.65732,-0.22417 0.36557,-1.35458 1.03272,-1.75653 0.56937,-0.38495 1.0305,-0.73144 1.34571,-1.02734 0.1576,-0.14795 0.32148,-0.26405 0.36523,-0.42188 0.18484,-0.66689 -0.089,-0.86635 -0.63284,-0.79878 -0.24862,0.0309 -0.51492,0.12442 -0.80469,0.26367 -0.57954,0.2785 -1.2397,0.73536 -1.79687,1.25391 -0.55718,0.51854 -0.85307,1.116 -1.28688,1.64 -0.43382,0.52401 -1.05877,0.76555 -1.77758,1.1432 -1.61003,0.84589 -3.25322,1.68827 -4.5957,2.12695 -1.8216,0.59524 -2.75571,-0.45702 -1.66697,-1.78947 0.41036,-0.50222 0.85772,-0.84388 1.27125,-1.34978 0.41353,-0.5059 0.88066,-1.22848 1.30947,-1.70665 0.42881,-0.47816 1.03121,-0.64491 1.37726,-0.98223 0.46878,-0.45694 0.83949,-0.88249 1.07813,-1.26953 0.23864,-0.38706 0.37905,-0.77013 0.20508,-1.11915 -0.34047,-0.68301 -1.00004,-1.05526 -1.72461,-1.19726 -0.72457,-0.14201 -1.52876,-0.0725 -2.26758,0.11914 -0.73882,0.19165 -1.38625,0.42788 -1.86719,0.89258 -0.48094,0.4647 -1.03697,0.95828 -1.58556,1.36869 -0.77236,0.35065 -1.24667,0.85177 -2.50431,1.54342 -1.25764,0.69164 -5.64671,2.66587 -5.96733,2.82156 -0.32062,0.15568 -1.07882,0.51599 -1.30659,0.18714 -0.22778,-0.32886 0.13416,-0.7561 0.37939,-1.00675 0.69485,-0.71019 1.25485,-1.49019 1.50195,-2.37891 0.2471,-0.88872 0.15801,-1.88251 -0.41601,-2.96484 -0.30324,-0.57175 -0.7684,-0.95769 -1.31836,-1.16602 -0.54997,-0.20832 -1.17923,-0.24824 -1.85157,-0.17968 -1.34466,0.13712 -2.23342,0.38556 -3.69121,1.08422 -1.09425,0.52443 -1.84593,0.85482 -2.11875,0.92535 -0.27283,0.0705 -0.46062,0.0297 -0.33125,-0.19073 0.12936,-0.22043 0.10927,-0.0952 1.05767,-1.07816 0.9484,-0.98297 1.78572,-1.69999 2.57963,-2.63326 0.39696,-0.46663 0.72528,-0.88042 0.95508,-1.21875 0.1149,-0.16916 0.20567,-0.31957 0.26953,-0.45703 0.0639,-0.13746 0.11962,-0.25707 0.0879,-0.43164 -0.0101,-0.0555 -0.043,-0.1278 -0.10156,-0.17969 -0.0586,-0.0519 -0.13057,-0.0735 -0.18359,-0.0781 -0.10606,-0.009 -0.30333,-0.013 -0.36133,0.0118 -0.116,0.0494 -0.26087,0.12331 -0.40625,0.22851 -0.29075,0.21041 -1.1073,0.93343 -1.5957,1.36914 -0.97684,0.87142 -1.48926,1.31238 -2.99609,2.82422 -0.49504,0.49667 -1.17106,1.2744 -1.4143,1.38333 -0.24323,0.10893 -0.63868,0.11123 -0.9033,0.0279 -4.37289,-1.37726 -10.79833,-0.94624 -16.60428,-1.1043 -3.6496,-0.0994 -7.25824,-0.0323 -9.95703,-0.26207 -1.3494,-0.1149 -1.72143,-0.24311 -2.49751,-0.40759 -1.81023,-0.3283 -0.45123,-0.89401 0.0795,-1.10413 1.35601,-0.42907 3.34044,-0.94235 5.78711,-1.49805 4.89335,-1.11139 11.6407,-2.39674 18.98242,-3.55664 14.68345,-2.3198 31.58148,-3.8519 40.93555,-2.80273 0,0 0.46807,0.0629 0.50391,-0.22461 0.0358,-0.28752 -0.44336,-0.32227 -0.44336,-0.32227 -1.78065,-0.19971 -3.82678,-0.29677 -6.07422,-0.30859 z m 44.64648,10.8125 c -0.0903,0.0115 -0.17794,0.0443 -0.25781,0.082 -0.15975,0.0755 -0.32003,0.18992 -0.50391,0.33985 -0.36776,0.29984 -0.81775,0.74471 -1.35156,1.29882 -0.27523,0.2857 -0.74263,0.76591 -1.06055,1.10352 -0.19514,0.10027 -0.27428,0.18039 -0.48046,0.28125 -2.6921,1.31691 -6.26743,2.65931 -8.83204,3.16602 -1.53885,0.30403 -1.42353,-0.15897 -1.49202,-0.29902 -0.0685,-0.14002 0.49762,-0.58301 1.47054,-1.71269 0.59422,-0.68997 1.03284,-1.41282 1.14844,-2.09375 0.0578,-0.34047 0.0295,-0.67876 -0.12696,-0.97266 -0.15646,-0.2939 -0.43569,-0.52524 -0.8125,-0.66992 -1.23181,-0.47298 -3.03348,0.11284 -4.55859,1.00976 -0.76255,0.44847 -1.45122,0.98568 -1.95117,1.55274 -0.49995,0.56705 -1.24888,1.84754 -1.21538,2.55855 0.0507,1.07676 0.59599,1.34827 1.78611,1.6617 1.19012,0.31342 3.50999,-0.03 5.857,-0.49369 2.40035,-0.47424 6.76898,-2.45829 7.32169,-2.49996 0.55272,-0.0417 -0.3822,0.91126 -1.16739,1.68941 -0.19829,0.19652 -0.26246,0.24562 -0.45313,0.4336 -0.93996,0.35764 -2.30554,0.90531 -2.89257,1.0957 -1.75025,0.56765 -4.40817,2.47423 -6.91016,4.53516 -2.50199,2.06092 -4.80384,4.2584 -5.75,5.45117 -0.59417,0.74903 -1.50835,1.64114 -2.0625,2.56055 -0.27708,0.4597 -0.53724,1.17833 -0.52332,1.66689 0.0139,0.48857 0.15049,1.09941 0.65318,1.48219 0.25893,0.19718 0.77014,0.2741 1.18631,0.1759 0.41618,-0.0982 0.92037,-0.40562 1.17338,-0.65311 0.51458,-0.50335 0.82524,-0.98433 1.46358,-1.69727 1.27665,-1.42587 2.61649,-2.95399 3.69726,-4.00314 3.39468,-3.29531 5.81919,-5.92622 10.4866,-9.74168 1.3665,-1.11707 2.90187,-1.58081 4.7927,-2.29814 1.51544,-0.57493 2.95479,-1.09867 4.0625,-1.44336 0.55385,-0.17235 1.02932,-0.27988 1.37304,-0.36524 0.15066,-0.0374 0.47571,-0.0738 0.54102,-0.0467 0.20519,0.0851 0.23754,0.21205 0.24609,0.35937 0.009,0.14733 -0.0544,0.36477 -0.20507,0.61719 -0.23258,0.38976 -0.62367,0.81989 -1.36635,1.22473 -0.74267,0.40484 -1.79577,0.79887 -2.50475,1.1366 -0.38679,0.18425 -0.70882,0.35426 -0.94531,0.51367 -0.11825,0.0797 -0.2153,0.15545 -0.29492,0.24219 -0.0796,0.0867 -0.16877,0.2007 -0.14649,0.3789 l 0.008,0.0703 0.0449,0.0586 c 0.0898,0.12055 0.22592,0.1846 0.35351,0.20703 0.1276,0.0224 0.25609,0.0138 0.39258,-0.01 0.27298,-0.0468 0.58341,-0.1597 0.92774,-0.31836 0.68864,-0.31733 1.50492,-0.82423 2.24218,-1.39844 0.13822,-0.10765 0.19885,-0.23047 0.33008,-0.3418 0.0476,-0.0176 0.0812,-0.0353 0.12891,-0.0527 1.03789,-0.38038 1.66611,-0.65075 2.49227,-0.85826 1.05673,-0.26543 1.34934,0.0578 1.42393,0.42451 0.0469,0.23083 0.005,0.34556 0.0154,0.57244 0.005,0.11344 0.0338,0.25116 0.14648,0.35937 0.11264,0.10822 0.2758,0.13447 0.41406,0.11719 0.16584,-0.0207 0.4428,0.14512 0.74465,0.0367 1.10376,-0.23636 1.61838,-0.38306 2.61859,0.26652 0.49781,0.3233 1.32949,0.0714 1.84026,0.0695 0.75743,-0.003 1.6438,-0.0959 2.93912,-0.13458 2.59065,-0.0774 6.05411,-0.28687 9.50196,-0.51367 3.44785,-0.2268 5.17772,-0.56948 7.69305,-0.71077 1.05936,-0.0573 2.24304,0.22435 2.51488,0.54982 0.27184,0.32548 0.54179,0.60047 -0.13754,1.0906 -0.67934,0.49014 -2.10031,0.56656 -2.13203,0.89082 -0.0317,0.32426 0.50119,0.32111 1.02089,0.2822 0.51969,-0.0389 0.7588,-0.11549 1.83957,-0.85053 1.08078,-0.73526 1.93349,-1.52924 2.37814,-1.92449 0.0456,-0.0406 0.12737,-0.13529 0.10743,-0.27539 -0.0199,-0.1401 -0.11638,-0.20311 -0.16797,-0.23047 -0.10318,-0.0547 -0.16972,-0.0572 -0.26367,-0.0684 -1.27754,-0.0657 -2.39193,0.0254 -3.48947,0.0865 -2.52259,0.14169 -5.9524,0.38464 -9.39844,0.61132 -3.44604,0.22668 -6.90892,0.43672 -9.48438,0.51368 -1.28771,0.0385 -1.94767,0.27806 -2.62513,0.0221 -2.16398,-0.81761 0.65354,-2.50992 1.5783,-3.27211 0.54382,-0.44821 0.73604,-0.89465 0.37305,-1.29102 -0.9822,-1.07253 -3.07889,-0.96951 -4.36719,-0.63086 -0.55545,0.1538 -1.01514,0.37842 -1.32227,0.67578 -0.15356,0.14868 -0.27238,0.31871 -0.32226,0.51758 -0.0499,0.19887 -0.0181,0.42299 0.0918,0.61133 0.37824,0.64842 1.36378,1.04633 1.64636,1.6141 0.42478,0.85348 -1.36427,1.27972 -2.14539,1.49437 -0.71735,0.19713 -0.93966,-0.3086 -0.94633,-0.43269 -0.0122,-0.22712 0.13481,-0.45948 0.16602,-0.68945 0.0156,-0.11499 0.023,-0.22845 -0.002,-0.34961 -0.025,-0.12117 -0.099,-0.26289 -0.23046,-0.3418 -0.1531,-0.0919 -0.2285,-0.0604 -0.33204,-0.0527 -0.10352,0.008 -0.22372,0.0267 -0.36328,0.0547 -0.27911,0.056 -0.63868,0.1486 -1.05664,0.26953 -0.89182,0.13366 -1.89014,0.65821 -1.45703,0.0684 0.21199,-0.28871 0.29953,-0.61682 0.28125,-0.93164 -0.0183,-0.31482 -0.20472,-0.61346 -0.51367,-0.79883 -0.13966,-0.0838 -0.27025,-0.0891 -0.41797,-0.0859 -0.14772,0.003 -0.31335,0.026 -0.50586,0.0625 -0.38502,0.0729 -0.87075,0.20511 -1.43554,0.38086 -1.1296,0.3515 -2.13209,0.65756 -3.65182,1.2341 -2.29179,0.91032 -3.013,0.48785 -1.48268,-1.0654 0.70179,-0.71232 1.83295,-1.0427 2.42356,-1.50855 0.3613,-0.28498 0.62257,-0.53679 0.7539,-0.82226 0.0657,-0.14274 0.0968,-0.31139 0.041,-0.47461 -0.0558,-0.16323 -0.18941,-0.28486 -0.33984,-0.35938 -0.0942,-0.0466 -0.18708,-0.0564 -0.27735,-0.0449 z m -48.16015,1.82033 c -0.16066,0.33629 -1.54327,1.78303 -2.36915,1.80858 -0.82588,0.0256 -1.95361,-0.83505 -2.05859,-1.14647 -0.37736,-1.11942 0.67771,-1.57919 1.45513,-1.87696 2.20764,-0.36155 3.13327,0.87855 2.97261,1.21485 z m 35.49833,-0.66169 c 0.28382,0.10898 0.43806,0.25003 0.52539,0.41406 0.0873,0.16404 0.11152,0.36858 0.0684,0.62305 -0.0864,0.50893 -0.301,1.0605 -0.85576,1.70464 -1.41892,1.34535 -3.8402,2.62068 -4.68721,2.5431 -0.84702,-0.0776 -1.34309,-0.7324 -1.42406,-1.62317 -0.0337,-0.37056 0.19175,-0.86419 0.63867,-1.37109 0.44691,-0.5069 1.09669,-1.01699 1.81836,-1.44141 1.08249,-0.63662 2.20806,-0.91067 2.7171,-0.96245 0.50904,-0.0518 0.93442,0.0324 1.19911,0.11327 z m 25.91768,0.17339 c 0.62184,0.0352 0.69298,0.0308 1.24328,0.26012 0.55031,0.22935 0.61725,0.67038 0.26752,0.95205 -0.34973,0.28168 -0.69352,0.68955 -1.64886,1.19321 -0.65417,0.30286 -0.88704,0.34437 -1.33854,-0.0421 -0.57369,-0.48259 -1.10437,-0.67956 -1.30431,-0.98344 -0.19994,-0.30387 -0.0743,-0.4827 0.0483,-0.64485 0.12262,-0.16215 0.52779,-0.42638 1.0216,-0.56311 0.49382,-0.13674 1.0891,-0.20708 1.71094,-0.17188 z m -86.13114,1.38247 c 0.48776,0.0481 1.2459,0.72317 1.53846,1.22341 0.29257,0.50023 0.45482,1.0998 0.10934,1.80078 -0.28108,0.57043 -0.74309,1.33984 -1.81698,2.27093 -1.07389,0.93109 -2.44874,2.00809 -3.85804,3.12952 -1.88113,1.49688 -4.02832,2.82147 -5.72059,3.75341 -0.84613,0.46597 -1.59666,0.81202 -2.16015,0.98633 -0.28175,0.0871 -0.51708,0.12938 -0.67969,0.13086 -0.16261,10e-4 -0.23035,-0.0357 -0.25195,-0.0586 -0.10767,-0.11389 -0.14483,-0.28646 -0.0566,-0.62109 0.0881,-0.33463 0.31004,-0.78724 0.64258,-1.31836 0.66507,-1.06225 1.76798,-2.44766 3.09765,-4.05469 0.76982,-0.9304 2.33929,-2.1799 2.78275,-2.66898 0.44346,-0.48907 2.13466,-1.95579 3.18524,-2.72461 1.05427,-0.91792 2.4009,-1.92646 3.18798,-1.84891 z m 21.01395,1.1898 c 0.22941,0.34042 -0.1204,1.03814 -0.9286,1.68032 -1.76582,1.23345 -3.92544,2.3021 -5.44248,3.28252 -0.51817,0.33488 -1.02439,-0.17918 -1.06445,-0.40623 -0.0401,-0.22705 0.3753,-0.82362 0.68246,-1.28905 0.30717,-0.46542 0.58412,-0.93109 1.28288,-1.71107 0.50933,-0.56853 1.00204,-0.99095 1.65771,-1.38465 0.65567,-0.3937 1.60512,-0.74517 2.14357,-0.78489 0.53844,-0.0397 1.4395,0.27263 1.66891,0.61305 z m 27.96875,-0.4453 c 0.78218,0.46695 0.28551,1.52862 -0.0156,1.91992 -0.89785,1.16667 -2.17675,1.56564 -2.67092,1.18631 -0.49417,-0.37933 -0.4909,-1.06585 0.14134,-1.66923 0.63223,-0.60337 1.07248,-0.96311 1.53739,-1.2749 0.33867,-0.22713 0.72201,-0.33273 1.00781,-0.1621 z m 6.86524,12.8867 c -1.14661,1.11306 -2.47588,2.94734 -3.72266,4.33985 -0.62339,0.69625 -1.25411,1.24246 -1.74219,1.5957 -0.45922,0.33235 -0.84042,0.33491 -1.1621,0.13281 -0.83549,-0.52492 -0.49569,-1.35734 -0.16993,-2.05078 0.40814,-0.8688 1.39142,-1.70962 2.02149,-2.5039 0.87843,-1.1074 3.18863,-3.32332 5.66992,-5.36719 2.48129,-2.04388 5.17715,-3.93372 6.73047,-4.4375 4.12033,-1.44686 -7.14162,7.82353 -7.625,8.29101 z m -12.15514,-1.87211 c 2.2847,0.88858 2.92541,2.15116 3.05553,3.42094 0.13011,1.26978 -0.45782,2.53754 -1.20313,3.40235 -1.0591,1.22892 -3.26181,1.59448 -5.19531,1.19921 -0.96675,-0.19763 -1.85906,-0.58089 -2.49219,-1.0996 -0.63313,-0.51873 -1.00604,-1.15357 -1.00586,-1.91016 1.7e-4,-0.71379 0.60034,-2.23517 1.57032,-3.98828 0.27946,-0.50509 0.86096,-1.20253 1.25228,-1.37674 1.32323,-0.58912 2.74293,-0.14376 4.01836,0.35228 z"
       id="path4229" />
  </g>
</svg>
